<svg width="20" height="6" viewBox="0 0 20 6" fill="none" xmlns="http://www.w3.org/2000/svg">
<path d="M0.904713 5.57743C0.847305 5.52021 0.818604 5.4496 0.818604 5.36546V1.27874C0.818604 1.19478 0.847305 1.12298 0.904713 1.06341C0.962121 1.00384 1.03254 0.973938 1.11673 0.973938C1.20049 0.973938 1.27245 1.00384 1.33187 1.06341C1.39168 1.12298 1.42153 1.19478 1.42153 1.27874V3.04067H3.93194V1.27874C3.93194 1.19478 3.96064 1.12298 4.01804 1.06341C4.07507 1.00384 4.14587 0.973938 4.23001 0.973938C4.31377 0.973938 4.38539 1.00384 4.44515 1.06341C4.50495 1.12298 4.53443 1.19478 4.53443 1.27874V5.36546C4.53443 5.4496 4.50491 5.52021 4.44515 5.57743C4.38539 5.63483 4.31377 5.66354 4.23001 5.66354C4.14587 5.66354 4.07507 5.63483 4.01804 5.57743C3.96064 5.52021 3.93194 5.4496 3.93194 5.36546V3.60352H1.42153V5.36546C1.42153 5.4496 1.39163 5.52021 1.33187 5.57743C1.2725 5.63483 1.20049 5.66354 1.11673 5.66354C1.03254 5.66358 0.962121 5.63488 0.904713 5.57743Z" fill="white"/>
<path d="M6.9787 5.577C6.9213 5.51978 6.89259 5.44917 6.89259 5.36503V1.56976H5.54126C5.46182 1.56976 5.39571 1.54322 5.34262 1.49032C5.28954 1.43723 5.26318 1.37095 5.26318 1.29151C5.26318 1.21188 5.28954 1.14463 5.34262 1.08952C5.39571 1.03427 5.46182 1.00653 5.54126 1.00653H8.83982C8.91964 1.00653 8.98689 1.03427 9.04194 1.08952C9.097 1.14458 9.12493 1.21183 9.12493 1.29151C9.12493 1.37095 9.097 1.43723 9.04194 1.49032C8.98689 1.54322 8.91964 1.56976 8.83982 1.56976H7.49514V5.36503C7.49514 5.44917 7.46562 5.51978 7.40586 5.577C7.34649 5.6344 7.27448 5.66311 7.19072 5.66311C7.10653 5.66315 7.03611 5.63445 6.9787 5.577Z" fill="white"/>
<path d="M9.93938 5.57698C9.88197 5.51977 9.85327 5.44916 9.85327 5.36502V1.41064C9.85327 1.29145 9.89536 1.18883 9.97912 1.10267C10.0629 1.01655 10.1647 0.97345 10.2839 0.97345H10.5022C10.5907 0.97345 10.6713 0.999995 10.744 1.05289C10.8168 1.10598 10.8711 1.17207 10.9065 1.25171L12.41 5.00074L13.9136 1.25171C13.949 1.17207 14.0029 1.10598 14.076 1.05289C14.1488 0.999995 14.2294 0.97345 14.3175 0.97345H14.5361C14.6553 0.97345 14.7572 1.01651 14.8409 1.10267C14.9247 1.18878 14.9668 1.29145 14.9668 1.41064V5.36502C14.9668 5.44916 14.9381 5.51977 14.8807 5.57698C14.8233 5.63439 14.7525 5.66309 14.6687 5.66309C14.585 5.66309 14.513 5.63439 14.4536 5.57698C14.3938 5.51977 14.3639 5.44916 14.3639 5.36502V1.60278L12.834 5.38508C12.7986 5.46884 12.7424 5.53628 12.6649 5.58702C12.5878 5.63775 12.5029 5.66309 12.4101 5.66309C12.3172 5.66309 12.2323 5.63775 12.1552 5.58702C12.0777 5.53628 12.0215 5.46884 11.9861 5.38508L10.4562 1.60278V5.36502C10.4562 5.44916 10.4263 5.51977 10.3665 5.57698C10.3072 5.63439 10.2352 5.66309 10.1514 5.66309C10.0672 5.66314 9.99684 5.63444 9.93938 5.57698Z" fill="white"/>
<path d="M16.3745 5.50759C16.2927 5.42599 16.2518 5.32764 16.2518 5.21282V1.27831C16.2518 1.19436 16.2805 1.12255 16.3379 1.06298C16.3953 1.00342 16.4658 0.973511 16.55 0.973511C16.6337 0.973511 16.7057 1.00342 16.7651 1.06298C16.8248 1.12255 16.8547 1.19436 16.8547 1.27831V5.02716H19.0206C19.1044 5.02716 19.1764 5.05706 19.2357 5.11682C19.2955 5.1762 19.3254 5.2482 19.3254 5.33196C19.3254 5.41591 19.2955 5.48652 19.2357 5.54393C19.1764 5.60134 19.1044 5.63004 19.0206 5.63004H16.6691C16.5543 5.63009 16.4559 5.58919 16.3745 5.50759Z" fill="white"/>
</svg>
