<svg width="3" height="3" viewBox="0 0 3 3" fill="none" xmlns="http://www.w3.org/2000/svg">
<path d="M1.43971 2.45666C1.43971 2.45666 1.4397 2.45666 1.43932 2.45666C1.15338 2.45666 0.88401 2.34458 0.681066 2.14145C0.478938 1.9397 0.367623 1.67066 0.367191 1.38434C0.366423 1.09706 0.478122 0.827061 0.681066 0.624309C0.882427 0.422757 1.15186 0.311829 1.43976 0.311829C1.72723 0.311829 1.99665 0.422757 2.19801 0.624309C2.40096 0.827061 2.51265 1.09706 2.51189 1.38434C2.5115 1.67066 2.40019 1.93966 2.19801 2.14164C1.99502 2.34478 1.7256 2.45666 1.43971 2.45666ZM1.43971 0.513192C1.20571 0.513192 0.98701 0.60324 0.823426 0.76668C0.658642 0.931464 0.568159 1.15054 0.568543 1.38396C0.568927 1.61657 0.65941 1.83506 0.823426 1.99908C0.988594 2.16424 1.2073 2.2553 1.43971 2.2553C1.67175 2.2553 1.89044 2.16444 2.05561 1.99927C2.21962 1.83525 2.31003 1.61681 2.31046 1.38396C2.31085 1.15054 2.22044 0.931464 2.05561 0.76668C1.89197 0.603288 1.67328 0.513192 1.43971 0.513192Z" fill="white"/>
</svg>
