<svg width="26" height="39" viewBox="0 0 26 39" fill="none" xmlns="http://www.w3.org/2000/svg">
<path d="M11.9587 23.9663C12.0415 22.515 11.398 20.1209 10.78 18.8053C10.1621 17.4896 9.27341 16.3125 8.25509 15.2752C7.55813 14.5653 6.78725 13.9095 5.88979 13.4802C4.99234 13.0508 3.95381 12.8617 2.98896 13.1042C2.02411 13.3468 1.15618 14.0642 0.873938 15.0182C0.698066 15.6128 0.752884 16.2577 0.932884 16.8509C1.35927 18.2562 2.45516 19.3813 3.7105 20.1434C4.9658 20.9055 6.38386 21.3492 7.78618 21.7852C9.18845 22.2212 10.7019 23.2066 11.9587 23.9663Z" fill="url(#paint0_linear_7_1691)"/>
<path d="M14.4132 25.3614C14.3304 23.9102 14.974 21.5161 15.5919 20.2004C16.2099 18.8847 17.0985 17.7077 18.1169 16.6704C18.8138 15.9604 19.5847 15.3047 20.4822 14.8753C21.3796 14.446 22.4181 14.2568 23.383 14.4994C24.3478 14.742 25.2158 15.4594 25.498 16.4134C25.6739 17.0079 25.6191 17.6528 25.4391 18.2461C25.0127 19.6514 23.9168 20.7764 22.6615 21.5385C21.4062 22.3006 19.9881 22.7444 18.5858 23.1804C17.1835 23.6164 15.6701 24.6018 14.4132 25.3614Z" fill="url(#paint1_linear_7_1691)"/>
<path d="M13.9527 21.7219C13.9527 21.7219 26.5314 2.98196 14.4889 0.669075C2.77734 -1.58025 13.9527 21.7219 13.9527 21.7219Z" fill="url(#paint2_linear_7_1691)"/>
<path d="M13.0683 27.761C13.1295 27.761 13.1792 27.7113 13.1792 27.6501C13.1838 22.2048 4.82492 15.9974 4.46895 15.7358C4.4199 15.6991 4.3503 15.7098 4.3142 15.7595C4.27782 15.8085 4.28852 15.8781 4.33787 15.9142C4.42388 15.9777 12.9621 22.3169 12.9575 27.6501C12.9575 27.7113 13.0071 27.761 13.0683 27.761Z" fill="#ADC8F7"/>
<path d="M13.8118 27.6238C13.8707 27.6238 13.9198 27.5776 13.9227 27.5182C14.1407 22.8639 23.0397 16.9691 23.1298 16.9102C23.1809 16.8767 23.195 16.8081 23.1615 16.7567C23.1277 16.7052 23.0591 16.6911 23.0079 16.7249C22.6372 16.9682 13.9244 22.7415 13.7009 27.5077C13.6981 27.5689 13.7454 27.6209 13.8066 27.6238C13.8084 27.6238 13.8101 27.6238 13.8118 27.6238Z" fill="#ADC8F7"/>
<path d="M12.9197 27.7609C12.969 27.7609 13.0141 27.7279 13.027 27.678C15.1756 19.4182 14.3813 4.74385 14.373 4.59635C14.3698 4.53544 14.3196 4.48748 14.2561 4.49213C14.1952 4.4953 14.1484 4.54786 14.1519 4.60906C14.1599 4.7557 14.9522 19.3962 12.8123 27.622C12.797 27.6815 12.8325 27.7418 12.8917 27.7575C12.9012 27.7597 12.9104 27.7609 12.9197 27.7609Z" fill="#ADC8F7"/>
<path d="M7.50528 26.7518C7.14038 26.7518 6.8446 27.0476 6.8446 27.4125V32.2868C6.8446 35.0275 8.52811 37.3591 10.9067 38.3398C10.9943 38.3759 11.0899 38.3934 11.1847 38.3934H15.6657C15.7605 38.3934 15.856 38.3759 15.9437 38.3398C18.3222 37.3592 20.0058 35.0275 20.0058 32.2868V27.4125C20.0058 27.0477 19.71 26.7518 19.3451 26.7518H7.50528Z" fill="url(#paint3_linear_7_1691)"/>
<path d="M6.8446 29.2807V27.4124C6.8446 27.0476 7.14038 26.7517 7.50523 26.7517H19.345C19.7099 26.7517 20.0056 27.0476 20.0056 27.4124V29.2807H6.8446Z" fill="#78A7FF"/>
<path d="M11.0359 33.0628C11.0359 34.3814 12.106 35.4516 13.4247 35.4516C14.7461 35.4516 15.8133 34.3814 15.8133 33.0628C15.8133 31.7413 14.7461 30.6711 13.4247 30.6711C12.106 30.6711 11.0359 31.7413 11.0359 33.0628Z" fill="#78A7FF"/>
<defs>
<linearGradient id="paint0_linear_7_1691" x1="11.9659" y1="18.4818" x2="0.766572" y2="18.4818" gradientUnits="userSpaceOnUse">
<stop stop-color="#E7ECFF"/>
<stop offset="1" stop-color="#C2D5FF"/>
</linearGradient>
<linearGradient id="paint1_linear_7_1691" x1="25.6054" y1="19.877" x2="14.406" y2="19.877" gradientUnits="userSpaceOnUse">
<stop stop-color="#E7ECFF"/>
<stop offset="1" stop-color="#C2D5FF"/>
</linearGradient>
<linearGradient id="paint2_linear_7_1691" x1="19.7055" y1="11.119" x2="9.14099" y2="11.119" gradientUnits="userSpaceOnUse">
<stop stop-color="#E7ECFF"/>
<stop offset="1" stop-color="#C2D5FF"/>
</linearGradient>
<linearGradient id="paint3_linear_7_1691" x1="20.0057" y1="32.5726" x2="6.8446" y2="32.5726" gradientUnits="userSpaceOnUse">
<stop stop-color="#E7ECFF"/>
<stop offset="1" stop-color="#C2D5FF"/>
</linearGradient>
</defs>
</svg>
