<svg width="12" height="12" viewBox="0 0 12 12" fill="none" xmlns="http://www.w3.org/2000/svg">
<path d="M11.7669 1.65013V7.05756C11.7669 7.47718 11.4268 7.81731 11.0071 7.81731H0.937897C0.518281 7.81731 0.178101 7.47713 0.178101 7.05756V1.65013C0.178101 1.23051 0.518281 0.890381 0.937897 0.890381H11.0071C11.4267 0.890333 11.7669 1.23051 11.7669 1.65013Z" fill="white"/>
<path d="M11.7655 10.379C11.7655 10.8161 11.4111 11.1704 10.9741 11.1704H0.971188C0.534148 11.1704 0.17981 10.8161 0.17981 10.379C0.17981 9.94193 0.534148 9.58765 0.971188 9.58765H10.9741C11.4112 9.58765 11.7655 9.94198 11.7655 10.379Z" fill="white"/>
</svg>
