<svg width="24" height="24" viewBox="0 0 24 24" fill="none" xmlns="http://www.w3.org/2000/svg">
<path d="M23.0645 12.3082C23.0645 18.6248 17.9441 23.7411 11.6316 23.7411C5.31908 23.7411 0.19873 18.6248 0.19873 12.3082C0.19873 5.99569 5.31908 0.879333 11.6316 0.879333C17.9441 0.879333 23.0645 5.99569 23.0645 12.3082Z" fill="#ADC8F7"/>
<path d="M20.1677 12.3088C20.1677 17.025 16.3447 20.845 11.6316 20.845C6.91839 20.845 3.09534 17.025 3.09534 12.3088C3.09534 7.5956 6.91839 3.77557 11.6316 3.77557C16.3447 3.77557 20.1677 7.5956 20.1677 12.3088Z" fill="url(#paint0_linear_7_2780)"/>
<path d="M8.97404 13.9106L5.77537 12.4755C5.68413 12.4329 5.61332 12.3755 5.56258 12.3031C5.51185 12.2311 5.48669 12.1497 5.48669 12.0587V11.9946C5.48669 11.9037 5.51185 11.8221 5.56258 11.7502C5.61332 11.6778 5.68413 11.6206 5.77537 11.5777L8.97404 10.1426C9.01691 10.1267 9.05938 10.1186 9.10224 10.1186C9.19311 10.1186 9.26938 10.1495 9.33073 10.2108C9.39207 10.2722 9.42313 10.3485 9.42313 10.4393C9.42313 10.5034 9.40307 10.5636 9.36299 10.6196C9.32286 10.6757 9.27054 10.7172 9.20646 10.7439L6.32046 12.0266L9.20646 13.3095C9.27054 13.3363 9.32286 13.3776 9.36299 13.4336C9.40312 13.4897 9.42313 13.5498 9.42313 13.614C9.42313 13.705 9.39207 13.7811 9.33073 13.8424C9.26938 13.9042 9.19306 13.9349 9.10224 13.9349C9.05938 13.9348 9.01691 13.9265 8.97404 13.9106Z" fill="white"/>
<path d="M10.3329 15.0652C10.2715 15.0011 10.2408 14.9236 10.2408 14.8327C10.2408 14.8005 10.2487 14.7604 10.2648 14.7124L12.3894 8.49914C12.4106 8.43482 12.448 8.38154 12.5015 8.33868C12.555 8.29581 12.6218 8.2746 12.7021 8.2746C12.7984 8.2746 12.8771 8.30666 12.9384 8.37074C12.9998 8.43482 13.0309 8.51254 13.0309 8.60335C13.0309 8.63523 13.0226 8.67535 13.0069 8.7235L10.8823 14.937C10.8607 15.0011 10.8233 15.0544 10.7698 15.0972C10.7163 15.1399 10.6495 15.1613 10.5696 15.1613C10.4733 15.1613 10.3942 15.1292 10.3329 15.0652Z" fill="white"/>
<path d="M13.9327 13.8424C13.8714 13.7811 13.8407 13.705 13.8407 13.614C13.8407 13.5499 13.8608 13.4897 13.9005 13.4336C13.9406 13.3776 13.9929 13.3363 14.057 13.3095L16.9434 12.0266L14.057 10.7439C13.9929 10.7172 13.9406 10.6756 13.9005 10.6196C13.8608 10.5636 13.8407 10.5034 13.8407 10.4393C13.8407 10.3484 13.8714 10.2722 13.9327 10.2108C13.9941 10.1495 14.0704 10.1186 14.1612 10.1186C14.2092 10.1186 14.2521 10.1267 14.2894 10.1426L17.4885 11.5777C17.5793 11.6206 17.6501 11.6778 17.7009 11.7502C17.7516 11.8221 17.7772 11.9037 17.7772 11.9946V12.0587C17.7772 12.1497 17.7516 12.2311 17.7009 12.3031C17.6501 12.3755 17.5793 12.4329 17.4885 12.4755L14.2894 13.9106C14.2521 13.9266 14.2091 13.9348 14.1612 13.9348C14.0704 13.9349 13.9941 13.9042 13.9327 13.8424Z" fill="white"/>
<defs>
<linearGradient id="paint0_linear_7_2780" x1="3.09533" y1="12.3103" x2="20.1677" y2="12.3103" gradientUnits="userSpaceOnUse">
<stop stop-color="#E7ECFF"/>
<stop offset="1" stop-color="#C2D5FF"/>
</linearGradient>
</defs>
</svg>
