<svg width="17" height="4" viewBox="0 0 17 4" fill="none" xmlns="http://www.w3.org/2000/svg">
<path d="M15.5689 2.49681C14.57 2.92842 12.6449 3.49635 10.1166 3.00301C6.3323 2.25824 2.80089 2.68957 1.39761 2.8292C0.905944 2.87677 0.635613 2.16945 0.558909 1.20878C0.555981 1.16658 0.553048 1.12434 0.552856 1.08003C2.8185 0.0959855 6.29582 0.267499 9.02923 1.50662C12.0213 2.86161 15.4344 2.11622 16.3634 1.17955C16.3662 1.17753 16.3686 1.17791 16.3706 1.1807C16.3726 1.18348 16.3702 1.18309 16.3702 1.18309C16.3722 1.18587 16.3715 1.19067 16.371 1.19303C16.4052 1.75131 16.0871 2.27178 15.5689 2.49681Z" fill="#070159"/>
</svg>
