<svg width="32" height="10" viewBox="0 0 32 10" fill="none" xmlns="http://www.w3.org/2000/svg">
<path d="M31.477 9.48934C31.3866 9.48934 31.2958 9.4591 31.2203 9.3966C31.1665 9.35182 25.7911 4.9027 23.6913 3.8719C20.0872 2.10305 17.3504 1.28086 15.9879 1.55283C14.913 1.76859 13.7847 3.16529 12.6938 4.5164C11.448 6.05888 10.1593 7.65444 8.69702 7.82384C6.43689 8.08793 1.37279 4.41497 0.802937 3.99569C0.624137 3.86364 0.585586 3.61174 0.71725 3.43294C0.849298 3.25376 1.10082 3.21603 1.28001 3.34726C2.75769 4.43509 6.95721 7.20531 8.60429 7.02449C9.74006 6.89283 10.9233 5.42734 12.0678 4.01062C13.3029 2.4811 14.4697 1.03683 15.8299 0.763707C17.7976 0.369147 21.3841 1.84366 24.0459 3.1496C26.2309 4.22206 31.5104 8.59179 31.7344 8.77726C31.9054 8.91915 31.929 9.17259 31.7871 9.34395C31.7076 9.43981 31.5929 9.48934 31.477 9.48934Z" fill="url(#paint0_linear_7_1757)"/>
<defs>
<linearGradient id="paint0_linear_7_1757" x1="0.639003" y1="5.09395" x2="31.8797" y2="5.09395" gradientUnits="userSpaceOnUse">
<stop offset="1.1e-07" stop-color="#B3B3FF"/>
<stop offset="1" stop-color="#C2D5FF"/>
</linearGradient>
</defs>
</svg>
