<svg width="85" height="52" viewBox="0 0 85 52" fill="none" xmlns="http://www.w3.org/2000/svg">
<path d="M9.6727 0.813171H0.109863V2.76432H9.6727V0.813171Z" fill="white"/>
<path d="M9.6727 5.35724H0.109863V7.30839H9.6727V5.35724Z" fill="white"/>
<path d="M30.2871 0.813232H15.0404V2.76448H30.2871V0.813232Z" fill="white"/>
<path d="M56.3586 0.813232H34.6708V2.76448H56.3586V0.813232Z" fill="white"/>
<path d="M61.615 5.35718H48.0527V7.30843H61.615V5.35718Z" fill="white"/>
<path d="M42.0539 5.35718H15.0404V7.30843H42.0539V5.35718Z" fill="white"/>
<path d="M9.6727 9.32629H0.109863V11.2774H9.6727V9.32629Z" fill="white"/>
<path d="M9.6727 13.8704H0.109863V15.8216H9.6727V13.8704Z" fill="white"/>
<path d="M30.2871 9.32635H15.0404V11.2776H30.2871V9.32635Z" fill="white"/>
<path d="M73.0193 9.32635H34.6708V11.2776H73.0193V9.32635Z" fill="white"/>
<path d="M61.615 13.8703H48.0527V15.8215H61.615V13.8703Z" fill="white"/>
<path d="M42.0539 13.8703H15.0404V15.8215H42.0539V13.8703Z" fill="white"/>
<path d="M13.4811 18.5244H3.91821V20.4755H13.4811V18.5244Z" fill="white"/>
<path d="M13.4811 23.0684H3.91821V25.0196H13.4811V23.0684Z" fill="white"/>
<path d="M34.0955 18.5244H18.8488V20.4756H34.0955V18.5244Z" fill="white"/>
<path d="M60.167 18.5244H38.4791V20.4756H60.167V18.5244Z" fill="white"/>
<path d="M73.8879 23.0683H51.861V25.0195H73.8879V23.0683Z" fill="white"/>
<path d="M45.8623 23.0683H18.8488V25.0195H45.8623V23.0683Z" fill="white"/>
<path d="M13.4811 27.0375H3.91821V28.9886H13.4811V27.0375Z" fill="white"/>
<path d="M13.4811 31.5815H3.91821V33.5327H13.4811V31.5815Z" fill="white"/>
<path d="M34.0955 27.0375H18.8488V28.9887H34.0955V27.0375Z" fill="white"/>
<path d="M60.167 27.0375H38.4791V28.9887H60.167V27.0375Z" fill="white"/>
<path d="M84.8909 31.5814H51.861V33.5327H84.8909V31.5814Z" fill="white"/>
<path d="M45.8623 31.5814H18.8488V33.5327H45.8623V31.5814Z" fill="white"/>
<path d="M10.0812 36.2908H0.518311V38.2419H10.0812V36.2908Z" fill="white"/>
<path d="M10.0812 40.8348H0.518311V42.786H10.0812V40.8348Z" fill="white"/>
<path d="M30.6956 36.2908H15.4489V38.2421H30.6956V36.2908Z" fill="white"/>
<path d="M56.7671 36.2908H35.0792V38.2421H56.7671V36.2908Z" fill="white"/>
<path d="M62.0235 40.8348H48.4612V42.786H62.0235V40.8348Z" fill="white"/>
<path d="M42.4624 40.8348H15.4489V42.786H42.4624V40.8348Z" fill="white"/>
<path d="M10.0812 44.8039H0.518311V46.755H10.0812V44.8039Z" fill="white"/>
<path d="M10.0812 49.348H0.518311V51.2992H10.0812V49.348Z" fill="white"/>
<path d="M30.6956 44.804H15.4489V46.7552H30.6956V44.804Z" fill="white"/>
<path d="M56.7671 44.804H35.0792V46.7552H56.7671V44.804Z" fill="white"/>
<path d="M81.5887 49.3479H48.4612V51.2991H81.5887V49.3479Z" fill="white"/>
<path d="M22.3454 49.3479H15.4489V51.299H22.3454V49.3479Z" fill="white"/>
<path d="M42.4624 49.3479H26.0417V51.299H42.4624V49.3479Z" fill="white"/>
</svg>
