<svg width="5" height="4" viewBox="0 0 5 4" fill="none" xmlns="http://www.w3.org/2000/svg">
<path d="M1.75429 0.654602C1.54256 0.980522 1.14776 1.42858 0.491022 1.70938C0.438798 1.7329 0.378363 1.72657 0.331899 1.70036C0.298107 1.6813 0.270267 1.65175 0.252651 1.61392C0.212763 1.52181 0.256059 1.41545 0.348171 1.37552C0.957195 1.11512 1.30554 0.685305 1.48021 0.405273C1.56963 0.483609 1.66093 0.56849 1.75429 0.654602Z" fill="white"/>
<path d="M2.94329 1.64563C2.72153 1.95475 2.28324 2.42568 1.55537 2.67466C1.50348 2.69266 1.45169 2.68574 1.40734 2.66069C1.36937 2.63928 1.33851 2.60514 1.3244 2.56103C1.29113 2.46709 1.34201 2.36217 1.43801 2.33005C2.07646 2.11127 2.46209 1.6942 2.65011 1.43005C2.74827 1.50781 2.84581 1.5767 2.94329 1.64563Z" fill="white"/>
<path d="M4.01544 2.28122C3.83553 2.60004 3.4296 3.16159 2.664 3.49226C2.61057 3.51785 2.55014 3.51151 2.50368 3.4853C2.46989 3.46625 2.44204 3.4366 2.42562 3.39676C2.38574 3.30464 2.42903 3.19826 2.52114 3.15833C3.18566 2.87359 3.53913 2.38534 3.69278 2.11304C3.80164 2.17174 3.9084 2.22919 4.01544 2.28122Z" fill="white"/>
</svg>
