<svg width="275" height="240" viewBox="0 0 275 240" fill="none" xmlns="http://www.w3.org/2000/svg">
<path d="M253.341 126.307C253.341 129.967 250.38 132.928 246.72 132.928H242.179V3.76697H246.742C250.169 3.76697 252.984 6.37604 253.308 9.72154C253.37 10.3381 253.329 4.83431 253.341 126.307Z" fill="url(#paint0_linear_7_1229)"/>
<path d="M250.533 10.3974V126.308C250.533 129.968 247.573 132.927 243.913 132.927H121.968C118.309 132.927 115.342 129.968 115.342 126.308V10.3974C115.342 6.73695 118.308 3.77209 121.968 3.77209H243.913C247.573 3.77209 250.533 6.73758 250.533 10.3974Z" fill="white"/>
<path opacity="0.03" d="M239.745 111.897V132.927H147.617V111.897C147.617 109.408 149.635 107.391 152.123 107.391H235.24C237.728 107.391 239.746 109.408 239.746 111.897H239.745Z" fill="black"/>
<path opacity="0.03" d="M249.153 26.0543V97.631H178.618C176.003 97.631 173.885 95.5071 173.885 92.8916V30.7879C173.885 28.1724 176.003 26.0543 178.618 26.0543H249.153Z" fill="black"/>
<path d="M250.537 10.3719V17.1655H115.346V10.3719C115.346 6.7235 118.296 3.76758 121.945 3.76758H243.938C247.581 3.76758 250.536 6.7235 250.536 10.3719H250.537Z" fill="url(#paint1_linear_7_1229)"/>
<path d="M124.193 10.792C124.193 11.9557 123.251 12.898 122.087 12.898C120.923 12.898 119.984 11.9557 119.984 10.792C119.984 9.62841 120.926 8.68604 122.087 8.68604C123.248 8.68604 124.193 9.62841 124.193 10.792Z" fill="white"/>
<path d="M129.924 10.792C129.924 11.9557 128.981 12.898 127.818 12.898C126.654 12.898 125.714 11.9557 125.714 10.792C125.714 9.62841 126.657 8.68604 127.818 8.68604C128.979 8.68604 129.924 9.62841 129.924 10.792Z" fill="white"/>
<path d="M135.655 10.792C135.655 11.9557 134.713 12.898 133.549 12.898C132.386 12.898 131.446 11.9557 131.446 10.792C131.446 9.62841 132.388 8.68604 133.549 8.68604C134.71 8.68604 135.655 9.62841 135.655 10.792Z" fill="white"/>
<path d="M142.745 41.1184L142.744 41.1196L142.746 41.1207L142.745 41.1184Z" fill="url(#paint2_linear_7_1229)"/>
<path d="M142.748 93.3085L142.749 93.3079L142.748 93.3062L142.748 93.3085Z" fill="url(#paint3_linear_7_1229)"/>
<path d="M137.279 83.0147V51.4126H129.864L129.867 51.4106H129.862V83.0172H129.867L129.864 83.0147H137.279Z" fill="url(#paint4_linear_7_1229)"/>
<path d="M148.212 51.4125V83.0146H148.213H155.629V51.4125H148.212Z" fill="url(#paint5_linear_7_1229)"/>
<path d="M148.212 51.4106H155.627L142.746 41.121L148.211 51.4106H148.212Z" fill="url(#paint6_linear_7_1229)"/>
<path d="M137.282 51.4106L142.744 41.1197L142.743 41.1184L129.867 51.4106H137.279H137.282Z" fill="url(#paint7_linear_7_1229)"/>
<path d="M148.212 83.0146V51.4125H137.28H137.279V83.0146H137.281H148.212Z" fill="url(#paint8_linear_7_1229)"/>
<path d="M148.211 51.4105L142.746 41.1209L142.744 41.1196L137.282 51.4105H148.211Z" fill="url(#paint9_linear_7_1229)"/>
<path d="M148.212 83.0172L142.749 93.3081L142.75 93.3088L155.627 83.0172H148.212Z" fill="url(#paint10_linear_7_1229)"/>
<path d="M137.279 83.0172H129.867L142.748 93.3062L137.282 83.0172H137.279Z" fill="url(#paint11_linear_7_1229)"/>
<path d="M137.282 83.0172L142.748 93.3062L142.749 93.3081L148.212 83.0172H137.282Z" fill="url(#paint12_linear_7_1229)"/>
<path d="M256.598 24.0306H250.615V95.6041H256.598C259.214 95.6041 261.336 93.4828 261.336 90.8673V28.7623C261.336 26.1468 259.214 24.0306 256.598 24.0306Z" fill="url(#paint13_linear_7_1229)"/>
<path d="M258.916 28.7623V90.8673C258.916 93.4828 256.795 95.6041 254.178 95.6041H180.644C178.029 95.6041 175.907 93.4828 175.907 90.8673V28.7623C175.907 26.1468 178.028 24.0306 180.644 24.0306H254.178C256.794 24.0306 258.916 26.1468 258.916 28.7623Z" fill="url(#paint14_linear_7_1229)"/>
<path d="M221.215 34.2125H181.799V36.4014H221.215V34.2125Z" fill="white"/>
<path d="M193.699 39.3082H181.799V41.4971H193.699V39.3082Z" fill="white"/>
<path d="M234.206 39.3082H224.381V41.4971H234.206V39.3082Z" fill="white"/>
<path d="M253.024 39.3082H237.833V41.4971H253.024V39.3082Z" fill="white"/>
<path d="M216.975 39.3082H198.838V41.4971H216.975V39.3082Z" fill="white"/>
<path d="M201.257 44.4033H181.799V46.5922H201.257V44.4033Z" fill="white"/>
<path d="M218.643 44.4033H206.709V46.5922H218.643V44.4033Z" fill="white"/>
<path d="M203.623 49.4984H191.072V51.6879H203.623V49.4984Z" fill="white"/>
<path d="M214.116 49.4984H208.458V51.6879H214.116V49.4984Z" fill="white"/>
<path d="M229.342 49.4984H217.82V51.6879H229.342V49.4984Z" fill="white"/>
<path d="M240.247 49.4984H234.281V51.6879H240.247V49.4984Z" fill="white"/>
<path d="M253.024 49.4984H243.951V51.6879H253.024V49.4984Z" fill="white"/>
<path d="M199.92 54.5941H192.101V56.7836H199.92V54.5941Z" fill="white"/>
<path d="M218.437 54.5941H204.651V56.7836H218.437V54.5941Z" fill="white"/>
<path d="M213.191 59.6898H200.742V61.8793H213.191V59.6898Z" fill="white"/>
<path d="M201.969 70.781H191.058V72.9699H201.969V70.781Z" fill="white"/>
<path d="M212.709 70.781H206.953V72.9699H212.709V70.781Z" fill="white"/>
<path d="M238.911 70.781H231.179V72.9699H238.911V70.781Z" fill="white"/>
<path d="M251.197 70.781H241.833V72.9699H251.197V70.781Z" fill="white"/>
<path d="M227.657 70.781H217.433V72.9699H227.657V70.781Z" fill="white"/>
<path d="M218.293 75.876H206.953V78.0655H218.293V75.876Z" fill="white"/>
<path d="M241.403 75.876H230.063V78.0655H241.403V75.876Z" fill="white"/>
<path d="M201.969 75.876H191.058V78.0655H201.969V75.876Z" fill="white"/>
<path d="M214.169 80.9718H206.953V83.1613H214.169V80.9718Z" fill="white"/>
<path d="M252.227 80.9718H243.035V83.1613H252.227V80.9718Z" fill="white"/>
<path d="M240.888 80.9718H235.217V83.1613H240.888V80.9718Z" fill="white"/>
<path d="M229.461 80.9718H218.121V83.1613H229.461V80.9718Z" fill="white"/>
<path d="M201.969 80.9718H191.058V83.1613H201.969V80.9718Z" fill="white"/>
<path d="M201.969 86.0668H191.058V88.2563H201.969V86.0668Z" fill="white"/>
<path d="M229.118 86.0668H206.953V88.2563H229.118V86.0668Z" fill="white"/>
<path d="M244.754 86.0668H232.297V88.2563H244.754V86.0668Z" fill="white"/>
<path d="M122.901 28.972C122.901 30.4544 123.68 31.8661 122.175 31.8661H122.1V32.6453H122.175C123.67 32.6453 122.901 34.15 122.901 35.4902C122.901 36.6437 123.545 37.2538 124.762 37.2538H125.096V36.425H124.799C124.187 36.425 123.902 36.1081 123.902 35.4284C123.902 34.4586 124.556 32.7403 123.317 32.248C124.556 31.745 123.902 30.0853 123.902 29.0951C123.902 28.4052 124.17 28.1106 124.799 28.1106H125.096V27.2817H124.762C123.562 27.2817 122.901 27.8817 122.901 28.9714V28.972Z" fill="url(#paint15_linear_7_1229)"/>
<path d="M138.936 31.8661C137.432 31.8661 138.211 30.4538 138.211 28.972C138.211 27.8976 137.527 27.2823 136.336 27.2823H136.014V28.1112H136.31C136.94 28.1221 137.209 28.4166 137.209 29.0957C137.209 30.0891 136.538 31.7335 137.785 32.2486C136.532 32.7549 137.209 34.4656 137.209 35.429C137.209 36.6545 136.165 36.3854 136.014 36.4256V37.2545C136.371 37.2047 138.211 37.4738 138.211 35.4908C138.211 34.1551 137.441 32.6459 138.936 32.6459H139.012V31.8667H138.936V31.8661Z" fill="url(#paint16_linear_7_1229)"/>
<path d="M134.76 29.3444H126.34V30.2906H134.76V29.3444Z" fill="url(#paint17_linear_7_1229)"/>
<path d="M134.76 31.4912H126.34V32.4374H134.76V31.4912Z" fill="url(#paint18_linear_7_1229)"/>
<path d="M129.289 33.6387H126.34V34.5849H129.289V33.6387Z" fill="url(#paint19_linear_7_1229)"/>
<path d="M133.253 33.6387H130.724V34.5849H133.253V33.6387Z" fill="url(#paint20_linear_7_1229)"/>
<path d="M155.25 95.9541L154.483 98.2769H153.497L156.006 90.8909H157.156L159.677 98.2769H158.658L157.869 95.9541H155.25ZM157.672 95.2087C156.947 92.9962 156.966 93.301 156.565 91.7351H156.543C156.157 93.2793 155.981 93.565 155.448 95.2087H157.672Z" fill="url(#paint21_linear_7_1229)"/>
<path d="M160.655 98.2769C160.735 96.9436 160.682 96.2525 160.698 90.4968H161.651V93.8283H161.673C162.013 93.2366 162.626 92.8528 163.481 92.8528C164.796 92.8528 165.728 93.9488 165.717 95.5594C165.717 97.455 164.523 98.3974 163.339 98.3974C162.572 98.3974 161.958 98.1015 161.564 97.4002H161.531L161.488 98.2769H160.655ZM161.652 96.1511C161.652 96.8952 162.26 97.6303 163.142 97.6303C164.15 97.6303 164.753 96.8085 164.753 95.5919C164.753 94.529 164.205 93.6198 163.175 93.6198C162.318 93.6198 161.651 94.3715 161.651 95.1979V96.1511H161.652Z" fill="url(#paint22_linear_7_1229)"/>
<path d="M170.716 98.0799C170.464 98.2112 169.905 98.3866 169.193 98.3866C167.593 98.3866 166.552 97.302 166.552 95.6799C166.552 94.0579 167.67 92.8636 169.402 92.8636C169.972 92.8636 170.475 93.0058 170.739 93.1372L170.519 93.8825C170.289 93.7512 169.928 93.6307 169.402 93.6307C168.185 93.6307 167.528 94.5291 167.528 95.636C167.528 96.8633 168.316 97.6195 169.368 97.6195C169.916 97.6195 170.278 97.4773 170.552 97.3568L170.716 98.0799Z" fill="url(#paint23_linear_7_1229)"/>
<path d="M236.81 104.933H153.694C151.205 104.933 149.188 106.95 149.188 109.439V138.272C149.188 140.761 151.205 142.778 153.694 142.778H236.81C239.298 142.778 241.315 140.761 241.315 138.272V109.439C241.315 106.95 239.298 104.933 236.81 104.933Z" fill="url(#paint24_linear_7_1229)"/>
<path d="M168.279 110.387H157.11C156.474 110.387 155.959 110.902 155.959 111.538V122.707C155.959 123.342 156.474 123.858 157.11 123.858H168.279C168.914 123.858 169.43 123.342 169.43 122.707V111.538C169.43 110.902 168.914 110.387 168.279 110.387Z" fill="url(#paint25_linear_7_1229)"/>
<path d="M234.545 112.921H175.141V114.557H234.545V112.921Z" fill="url(#paint26_linear_7_1229)"/>
<path d="M234.545 117.474H175.141V119.11H234.545V117.474Z" fill="url(#paint27_linear_7_1229)"/>
<path d="M234.545 122.028H175.141V123.664H234.545V122.028Z" fill="url(#paint28_linear_7_1229)"/>
<path d="M234.545 126.581H156.204V128.218H234.545V126.581Z" fill="url(#paint29_linear_7_1229)"/>
<path d="M234.545 131.135H156.204V132.771H234.545V131.135Z" fill="url(#paint30_linear_7_1229)"/>
<path d="M234.545 135.688H156.204V137.324H234.545V135.688Z" fill="url(#paint31_linear_7_1229)"/>
<path d="M230.164 57.8523C229.921 57.6088 229.589 57.5157 229.187 57.6681L223.438 60.2472C223.026 60.4416 222.747 60.8038 222.747 61.2686V61.384C222.747 61.8514 223.028 62.2123 223.444 62.408L229.188 64.9846L229.205 64.9916C229.531 65.1146 229.905 65.0604 230.166 64.7997C230.62 64.345 230.435 63.5971 229.851 63.3536L225.29 61.3266L229.844 59.3023C230.462 59.0459 230.603 58.2929 230.165 57.8523H230.164Z" fill="white"/>
<path d="M235.156 54.8951L231.341 66.0531C231.123 66.7131 231.584 67.2563 232.175 67.2563C232.599 67.2563 232.907 66.993 233.021 66.6493L236.837 55.4913C236.959 55.1202 236.874 54.7924 236.646 54.5533C236.221 54.1115 235.38 54.2211 235.156 54.8957L235.156 54.8951Z" fill="white"/>
<path d="M244.72 60.2446L238.972 57.6662C238.424 57.4315 237.745 57.8084 237.745 58.4766C237.745 58.8457 237.995 59.1671 238.313 59.2991L242.874 61.326L238.319 63.3504C237.703 63.6093 237.562 64.3635 238 64.7997C238.275 65.0751 238.683 65.1102 238.977 64.9839L244.725 62.4055C245.137 62.2123 245.417 61.8482 245.417 61.384V61.2686C245.417 60.8032 245.14 60.4429 244.72 60.2446Z" fill="white"/>
<path d="M80.7946 212.178L72.1398 212.086L72.6773 203.85L81.0394 204.109L80.8736 212.109C80.8685 212.149 80.8348 212.179 80.7946 212.178Z" fill="#FFDAD9"/>
<path d="M71.9351 211.831L70.436 218.093C70.1785 219.414 71.1616 220.652 72.507 220.697C78.0312 220.882 88.8895 220.699 90.8948 220.681C91.0548 220.679 91.1817 220.553 91.1894 220.393C91.2786 218.478 90.0066 217.26 88.1321 216.318L80.9055 211.451C80.8921 211.443 80.8768 211.439 80.8608 211.44L71.9344 211.831L71.9351 211.831Z" fill="#373A50"/>
<path d="M46.1045 207.811L38.9321 202.966L43.9182 196.388L50.7539 201.211L46.2084 207.797C46.1823 207.827 46.1377 207.833 46.1045 207.811Z" fill="#FFDAD9"/>
<path d="M38.9015 202.64L34.2011 207.04C33.2587 208.001 33.397 209.576 34.495 210.354C39.0035 213.552 48.1665 219.381 49.8491 220.471C49.9836 220.558 50.159 220.523 50.2533 220.393C51.3832 218.844 50.9923 217.127 49.9473 215.308L46.5973 207.266C46.5903 207.252 46.5801 207.239 46.5661 207.232L38.9015 202.64Z" fill="#373A50"/>
<path d="M29.0397 168.855H27.5873V213.906H29.0397V168.855Z" fill="#373A50"/>
<path d="M55.2426 162.698L41.1299 198.467L48.9042 204.76L67.1428 175.919C63.9981 168.18 60.6431 161.292 55.2432 162.697L55.2426 162.698Z" fill="#3A4AC3"/>
<path d="M14.2416 144.536L12.8254 155.933C12.6711 161.125 16.8379 165.418 22.0324 165.418H58.5141L70.9646 208.336C71.1106 210.182 82.4115 209.288 82.2654 207.442C82.2654 207.442 77.9591 157.673 72.6364 153.151C65.6055 147.178 37.3438 144.756 37.3438 144.756L14.2416 144.536V144.536Z" fill="#3A4AC3"/>
<path d="M43.4763 96.9698C43.2576 97.2165 43.0281 97.8662 42.7979 98.7002C42.0736 101.322 41.3722 105.824 41.3722 105.824L32.4891 99.6949C35.7492 95.0264 36.8644 91.5763 36.8644 91.5763C36.8644 91.5763 37.537 91.7484 38.4628 92.0532C40.9756 92.8987 45.3795 94.7496 43.4763 96.9691V96.9698Z" fill="#FFDAD9"/>
<path d="M43.4763 96.9698C43.2576 97.2165 43.0281 97.8662 42.7979 98.7002C42.7979 98.7002 38.6637 94.6355 37.9796 93.3125C37.7781 92.9274 38.0197 92.4906 38.4622 92.0532C40.975 92.8987 45.379 94.7496 43.4757 96.9691L43.4763 96.9698Z" fill="#FECDCB"/>
<path d="M53.1647 90.1334C53.1647 90.743 51.8021 90.8692 51.8021 90.8692C51.8021 90.8692 51.739 91.8639 51.5433 93.1117C51.3297 94.4513 50.8655 96.7167 49.8932 97.6482C49.042 98.4643 40.1245 98.0391 36.8644 91.577L33.7822 87.4026L36.0247 78.9505C36.0247 78.9505 42.1367 76.9153 47.7942 77.0186C53.4631 77.1161 51.7728 87.2585 51.7728 87.2585C51.7728 87.2585 53.1641 89.5927 53.1641 90.1334H53.1647Z" fill="#FFDAD9"/>
<path d="M36.8669 91.5763C36.8669 91.5763 37.0862 90.3541 36.5156 88.9156C35.8773 87.3076 35.3436 86.0859 35.9985 85.215C37.713 82.9349 40.2417 87.3363 40.2417 87.3363L41.5284 86.9888L41.7719 79.7896C41.7719 79.7896 51.9965 83.3372 54.5355 79.7896C57.0744 76.242 56.0657 71.3038 52.3447 72.0689C48.6236 72.834 43.2327 73.0425 43.2327 73.0425C43.2327 73.0425 33.2166 72.0338 32.382 76.2771C31.5474 80.5203 28.8331 86.7746 36.8675 91.577L36.8669 91.5763Z" fill="#111228"/>
<path d="M84.2178 120.616C84.2178 120.616 86.2033 124.239 85.0824 125.008C82.7501 126.609 76.9708 125.905 76.9708 125.905L79.1482 120.617C79.1482 120.617 80.1518 114.885 81.6298 115.483C83.1077 116.076 82.5907 118.578 82.5907 118.578C82.5907 118.578 89.64 115.018 90.4568 116.283C91.2786 117.548 84.2184 120.617 84.2184 120.617L84.2178 120.616Z" fill="#FFDAD9"/>
<path d="M32.9814 116.189C36.7688 121.701 46.5611 137.286 51.417 138.072C55.5564 138.742 81.8842 126.94 81.8842 126.94L79.0692 119.804L57.1089 125.309C57.1089 125.309 47.0501 109.825 43.9507 106.975C38.4444 101.911 28.5858 109.793 32.9814 116.19V116.189Z" fill="#EAC250"/>
<path d="M44.1688 131.536L45.2476 145.646C45.2476 146.193 40.3891 147.251 34.3752 148.28C24.6122 149.941 12.821 149.165 12.821 148.28C12.821 148.28 21.8565 102.317 32.9967 98.2394C37.1794 96.7078 42.9943 104.493 43.9507 107.679C46.3749 115.751 44.1688 131.537 44.1688 131.537V131.536Z" fill="#FADF68"/>
<path d="M47.8349 131.646C47.5072 136.568 46.6904 141.403 45.2475 145.646C45.2475 146.193 40.389 147.251 34.3751 148.28C36.1687 145.077 36.9338 141.294 36.3243 137.665C35.2895 131.513 30.8103 126.419 29.4248 120.33C28.2459 115.127 29.0454 111.441 32.3571 107.256C35.2436 108.222 36.9625 111.211 37.8424 114.126C38.7166 117.047 39.0443 120.164 40.4356 122.878C41.3614 124.683 42.7182 126.224 44.0922 127.719C45.317 129.047 46.5648 130.358 47.8349 131.646Z" fill="#EAC250"/>
<path d="M81.4302 140.57L78.4348 139.04L71.1731 139.138L71.4951 134.475C71.4951 134.475 74.4446 131.474 75.8015 132.687C77.0951 133.842 75.5655 134.688 75.4278 134.762C75.7785 134.687 82.4395 134.601 82.4179 136.297C82.3719 139.884 81.4302 140.57 81.4302 140.57Z" fill="#FFDAD9"/>
<path d="M30.3659 112.226C31.8669 118.743 35.2576 136.834 39.4868 139.347C43.0918 141.488 71.914 140.169 71.914 140.169V133.561L49.4653 129.562C49.4653 129.562 45.7889 111.468 43.952 107.679C40.6874 100.948 28.6246 104.662 30.3666 112.226L30.3659 112.226Z" fill="#FADF68"/>
<path d="M53.2221 165.4H11.535C10.649 165.4 9.93079 166.118 9.93079 167.004V168.721C9.93079 169.607 10.649 170.325 11.535 170.325H53.2221C54.1081 170.325 54.8263 169.607 54.8263 168.721V167.004C54.8263 166.118 54.1081 165.4 53.2221 165.4Z" fill="#B2C7FF"/>
<path d="M13.2304 170.059L11.535 170.325C10.6596 170.462 9.83896 169.864 9.70187 168.988L1.79178 118.693C1.65469 117.817 2.25276 116.997 3.12819 116.86L4.82358 116.594C5.69901 116.457 6.5196 117.055 6.65668 117.93L14.5668 168.225C14.7039 169.1 14.1058 169.921 13.2304 170.058V170.059Z" fill="#B2C7FF"/>
<path d="M44.967 220.646C44.8108 219.743 44.0674 219.025 43.125 218.944C36.0566 218.335 29.0442 213.906 29.0442 213.906H27.5866C27.5866 213.906 20.5749 218.335 13.5058 218.944C12.5641 219.025 11.82 219.743 11.6644 220.646H44.967Z" fill="#373A50"/>
<path d="M95.2465 143.327H72.3368C72.3368 142.668 72.6014 142.068 73.0337 141.642C73.466 141.203 74.0602 140.938 74.7189 140.938H92.8644C94.1811 140.938 95.2465 142.009 95.2465 143.326V143.327Z" fill="#373A50"/>
<path d="M59.1645 220.646L70.5132 154.67C71.2617 150.319 75.0089 147.161 79.4237 147.161H125.064C129.479 147.161 133.226 150.319 133.974 154.67L145.323 220.646H147.288L135.883 154.342C134.974 149.059 130.424 145.224 125.063 145.224H79.423C74.0627 145.224 69.5121 149.059 68.6036 154.341L57.1981 220.645H59.1632L59.1645 220.646Z" fill="#373A50"/>
<path d="M135.597 144.545V145.946C135.597 146.617 135.055 147.16 134.377 147.16H70.109C69.4376 147.16 68.8893 146.617 68.8893 145.946V144.545C68.8893 143.874 69.4383 143.325 70.109 143.325H134.377C135.055 143.325 135.597 143.874 135.597 144.545Z" fill="#B2C7FF"/>
<path d="M120.858 143.327H109.357C108.822 143.327 108.388 142.893 108.388 142.358C108.388 141.823 108.822 141.39 109.357 141.39H120.916C122.556 141.39 124.159 140.7 125.164 139.403C126.21 138.053 126.519 136.334 126.01 134.712L116.92 105.68L118.768 105.101L127.859 134.133C128.544 136.323 128.15 138.639 126.777 140.481C125.401 142.327 123.161 143.327 120.858 143.327Z" fill="black"/>
<path d="M120.31 98.0767C120.992 96.3755 123.591 97.3211 123.12 99.0917L116.579 123.686C116.547 123.805 116.509 123.921 116.464 124.033C115.784 125.735 113.182 124.791 113.653 123.019L120.195 98.4235C120.227 98.3043 120.265 98.1889 120.31 98.0773V98.0767Z" fill="#111228"/>
<path d="M123.559 87.7864L111.869 131.742C111.185 134.314 108.551 135.847 105.979 135.163L117.672 91.2002C118.354 88.6364 120.995 87.1048 123.559 87.7864Z" fill="#373A50"/>
<path d="M50.8024 86.2741C50.7928 86.8798 50.5314 87.3663 50.2209 87.3612C49.9098 87.3561 49.6643 86.8619 49.6739 86.2562C49.6834 85.6505 49.9448 85.164 50.2553 85.1691C50.5665 85.1742 50.812 85.6683 50.8024 86.2741Z" fill="#111228"/>
<path d="M51.2194 84.7866C50.5085 84.842 50.3657 84.6278 49.7835 84.9217C49.6324 85.0002 49.4654 85.1047 49.2562 85.1691C49.3002 84.9568 49.3774 84.7744 49.51 84.6061C49.7956 84.2287 50.2891 84.1292 50.7571 84.3791C50.9414 84.476 51.097 84.6074 51.22 84.7866H51.2194Z" fill="#111228"/>
<path d="M51.5433 93.1117C51.4802 93.5083 51.4056 93.9278 51.3074 94.348H51.25C50.5601 94.348 50.0079 93.7958 49.9965 93.1117H51.5433Z" fill="white"/>
<path d="M106.515 65.2517L107.032 68.4607C107.092 68.8809 106.732 69.2539 106.311 69.1818L102.561 68.5806C100.41 69.8188 97.9097 70.5278 95.2534 70.5278C87.1527 70.5278 80.5784 63.9656 80.5784 55.8649C80.5784 47.7641 87.1527 41.1898 95.2534 41.1898C103.354 41.1898 109.916 47.7641 109.916 55.8649C109.916 59.4342 108.63 62.7159 106.515 65.2517Z" fill="url(#paint32_linear_7_1229)"/>
<path d="M104.656 57.5896V54.7605H102.595C102.398 53.748 102.006 52.8031 101.447 51.9812L102.902 50.5269L100.889 48.5203L99.4406 49.9683C98.6188 49.4098 97.6796 49.0113 96.6613 48.8143V46.765H93.8266V48.8143C92.8141 49.0107 91.8691 49.4098 91.0473 49.9683L89.5993 48.5203L87.5927 50.5269L89.0471 51.9812C88.4886 52.8031 88.0901 53.748 87.8994 54.7605H85.8374V57.5896H87.893C88.0894 58.6021 88.4822 59.5407 89.0401 60.3689L87.5921 61.8233L89.5986 63.8234L91.0466 62.3812C91.8691 62.9397 92.8141 63.3389 93.8259 63.5289V65.5788H96.6607V63.5289C97.6796 63.3389 98.6181 62.9397 99.4464 62.3812L100.889 63.8234L102.902 61.8233L101.447 60.3689C102.006 59.5407 102.404 58.6021 102.595 57.5896H104.656ZM95.244 59.7734C93.2572 59.7734 91.6485 58.159 91.6485 56.1786C91.6485 54.1982 93.2572 52.571 95.244 52.571C97.2307 52.571 98.8451 54.1918 98.8451 56.1786C98.8451 58.1653 97.2365 59.7734 95.244 59.7734Z" fill="white"/>
<path d="M202.751 190.609C202.751 190.609 217.4 177.778 217.296 175.128C217.192 172.479 211.634 174.297 211.27 172.531C210.907 170.765 219.582 163.648 218.335 162.141C217.088 160.634 213.816 164.739 213.296 162.765C212.776 160.791 219.123 150.68 212.154 150.037C203.256 149.218 207.109 161.064 205.66 161.362C203.81 161.743 201.012 158.619 198.105 161.211C192.978 165.782 202.751 190.608 202.751 190.608V190.609Z" fill="#3DCFA4"/>
<path d="M203.241 188.591C203.456 186.285 203.766 183.993 204.116 181.709C204.461 179.423 204.862 177.146 205.294 174.875C205.426 174.243 206.205 170.276 206.766 168.094C207.141 166.533 207.893 163.749 208.503 162.265L208.867 161.475L208.625 162.307C208.309 163.486 207.679 166.873 207.418 168.237L206.132 175.037C205.685 177.301 205.248 179.567 204.769 181.826C204.296 184.087 203.804 186.345 203.241 188.591Z" fill="#30BB93"/>
<path d="M206.673 171.658C207.034 170.749 207.738 169.76 208.374 169.017C209.011 168.272 209.884 167.424 210.723 166.932C210.364 167.84 209.656 168.835 209.022 169.573C208.389 170.311 207.517 171.162 206.673 171.658Z" fill="#30BB93"/>
<path d="M204.479 183.247C205.031 182.424 205.939 181.594 206.723 180.995C207.51 180.392 208.554 179.734 209.486 179.421C208.938 180.24 208.029 181.073 207.241 181.673C206.459 182.27 205.419 182.929 204.479 183.247Z" fill="#30BB93"/>
<path d="M204.828 179.649C203.894 178.503 202.911 176.8 202.275 175.537C201.641 174.29 200.849 172.473 200.484 171.04C201.404 172.165 202.394 173.867 203.038 175.152C203.68 176.423 204.461 178.217 204.828 179.65V179.649Z" fill="#30BB93"/>
<path d="M202.245 190.843C202.245 190.843 203.133 177.428 201.789 176.186C200.445 174.943 198.618 178.544 197.579 177.859C196.539 177.175 197.3 169.465 195.956 169.338C194.612 169.212 195.018 172.813 193.801 172.102C192.584 171.392 190.745 163.358 187.029 166.448C182.286 170.39 189.95 174.293 189.388 175.146C188.671 176.235 185.78 176.076 185.626 178.76C185.355 183.494 202.245 190.843 202.245 190.843Z" fill="#3DCFA4"/>
<path d="M201.5 189.619C200.48 188.389 199.512 187.118 198.567 185.832C197.62 184.547 196.704 183.241 195.807 181.921C194.627 180.117 193.386 178.322 192.017 175.815C190.909 173.682 191.245 174.156 191.009 173.635C191.76 174.934 191.67 174.77 192.265 175.665C192.455 175.961 192.261 175.672 196.294 181.591C197.181 182.914 198.075 184.233 198.944 185.571C199.817 186.905 200.679 188.247 201.5 189.619Z" fill="#30BB93"/>
<path d="M194.909 179.677C194.642 179.057 194.503 178.23 194.45 177.558C194.397 176.883 194.41 176.042 194.58 175.393C194.848 176.012 194.988 176.843 195.039 177.512C195.09 178.181 195.08 179.023 194.909 179.677H194.909Z" fill="#30BB93"/>
<path d="M199.495 186.406C199.363 185.736 199.401 184.886 199.491 184.211C199.581 183.533 199.77 182.702 200.072 182.094C200.204 182.761 200.168 183.612 200.076 184.29C199.985 184.963 199.799 185.792 199.495 186.406Z" fill="#30BB93"/>
<path d="M197.909 184.479C196.894 184.375 195.583 184.024 194.655 183.718C193.737 183.419 192.464 182.918 191.586 182.396C192.584 182.497 193.898 182.845 194.84 183.158C195.774 183.464 197.031 183.959 197.909 184.479Z" fill="#30BB93"/>
<path d="M209.857 188.53H193.78V191.686H209.857V188.53Z" fill="url(#paint33_linear_7_1229)"/>
<path d="M206.257 201.303H197.38L195.407 191.686H208.229L206.257 201.303Z" fill="url(#paint34_linear_7_1229)"/>
<defs>
<linearGradient id="paint0_linear_7_1229" x1="242.178" y1="68.3472" x2="253.343" y2="68.3472" gradientUnits="userSpaceOnUse">
<stop stop-color="#D1DEFF"/>
<stop offset="1" stop-color="#B2C7FF"/>
</linearGradient>
<linearGradient id="paint1_linear_7_1229" x1="115.346" y1="10.4669" x2="250.537" y2="10.4669" gradientUnits="userSpaceOnUse">
<stop stop-color="#D1DEFF"/>
<stop offset="1" stop-color="#B2C7FF"/>
</linearGradient>
<linearGradient id="paint2_linear_7_1229" x1="137.741" y1="41.1196" x2="147.751" y2="41.1196" gradientUnits="userSpaceOnUse">
<stop stop-color="#EBF2FF"/>
<stop offset="1" stop-color="#E1E8FF"/>
</linearGradient>
<linearGradient id="paint3_linear_7_1229" x1="137.739" y1="93.3073" x2="147.755" y2="93.3073" gradientUnits="userSpaceOnUse">
<stop stop-color="#EBF2FF"/>
<stop offset="1" stop-color="#E1E8FF"/>
</linearGradient>
<linearGradient id="paint4_linear_7_1229" x1="132.706" y1="67.2532" x2="137.814" y2="67.0134" gradientUnits="userSpaceOnUse">
<stop stop-color="#D1DEFF"/>
<stop offset="1" stop-color="#B2C7FF"/>
</linearGradient>
<linearGradient id="paint5_linear_7_1229" x1="155.059" y1="66.7934" x2="145.274" y2="68.1036" gradientUnits="userSpaceOnUse">
<stop stop-color="#D1DEFF"/>
<stop offset="1" stop-color="#B2C7FF"/>
</linearGradient>
<linearGradient id="paint6_linear_7_1229" x1="129.865" y1="46.2658" x2="155.627" y2="46.2658" gradientUnits="userSpaceOnUse">
<stop stop-color="#EBF2FF"/>
<stop offset="1" stop-color="#E1E8FF"/>
</linearGradient>
<linearGradient id="paint7_linear_7_1229" x1="129.867" y1="46.2645" x2="155.622" y2="46.2645" gradientUnits="userSpaceOnUse">
<stop stop-color="#EBF2FF"/>
<stop offset="1" stop-color="#E1E8FF"/>
</linearGradient>
<linearGradient id="paint8_linear_7_1229" x1="137.279" y1="67.2135" x2="148.212" y2="67.2135" gradientUnits="userSpaceOnUse">
<stop stop-color="#EBF2FF"/>
<stop offset="1" stop-color="#E1E8FF"/>
</linearGradient>
<linearGradient id="paint9_linear_7_1229" x1="137.282" y1="46.2651" x2="148.211" y2="46.2651" gradientUnits="userSpaceOnUse">
<stop stop-color="#D1DEFF"/>
<stop offset="1" stop-color="#B2C7FF"/>
</linearGradient>
<linearGradient id="paint10_linear_7_1229" x1="129.871" y1="88.1627" x2="155.627" y2="88.1627" gradientUnits="userSpaceOnUse">
<stop stop-color="#EBF2FF"/>
<stop offset="1" stop-color="#E1E8FF"/>
</linearGradient>
<linearGradient id="paint11_linear_7_1229" x1="129.867" y1="88.1614" x2="155.629" y2="88.1614" gradientUnits="userSpaceOnUse">
<stop stop-color="#EBF2FF"/>
<stop offset="1" stop-color="#E1E8FF"/>
</linearGradient>
<linearGradient id="paint12_linear_7_1229" x1="137.282" y1="88.1627" x2="148.212" y2="88.1627" gradientUnits="userSpaceOnUse">
<stop stop-color="#D1DEFF"/>
<stop offset="1" stop-color="#B2C7FF"/>
</linearGradient>
<linearGradient id="paint13_linear_7_1229" x1="256.736" y1="59.8174" x2="259.245" y2="59.8174" gradientUnits="userSpaceOnUse">
<stop stop-color="#909EFF"/>
<stop offset="1" stop-color="#6977E3"/>
</linearGradient>
<linearGradient id="paint14_linear_7_1229" x1="231.873" y1="45.5982" x2="190.347" y2="86.4239" gradientUnits="userSpaceOnUse">
<stop stop-color="#909EFF"/>
<stop offset="1" stop-color="#6977E3"/>
</linearGradient>
<linearGradient id="paint15_linear_7_1229" x1="122.1" y1="32.2684" x2="125.097" y2="32.2684" gradientUnits="userSpaceOnUse">
<stop stop-color="#D1DEFF"/>
<stop offset="1" stop-color="#B2C7FF"/>
</linearGradient>
<linearGradient id="paint16_linear_7_1229" x1="136.015" y1="32.2684" x2="139.012" y2="32.2684" gradientUnits="userSpaceOnUse">
<stop stop-color="#D1DEFF"/>
<stop offset="1" stop-color="#B2C7FF"/>
</linearGradient>
<linearGradient id="paint17_linear_7_1229" x1="126.34" y1="29.8175" x2="134.76" y2="29.8175" gradientUnits="userSpaceOnUse">
<stop stop-color="#D1DEFF"/>
<stop offset="1" stop-color="#B2C7FF"/>
</linearGradient>
<linearGradient id="paint18_linear_7_1229" x1="126.34" y1="31.9643" x2="134.76" y2="31.9643" gradientUnits="userSpaceOnUse">
<stop stop-color="#D1DEFF"/>
<stop offset="1" stop-color="#B2C7FF"/>
</linearGradient>
<linearGradient id="paint19_linear_7_1229" x1="126.34" y1="34.1118" x2="134.76" y2="34.1118" gradientUnits="userSpaceOnUse">
<stop stop-color="#D1DEFF"/>
<stop offset="1" stop-color="#B2C7FF"/>
</linearGradient>
<linearGradient id="paint20_linear_7_1229" x1="127.977" y1="34.1118" x2="133.253" y2="34.1118" gradientUnits="userSpaceOnUse">
<stop stop-color="#D1DEFF"/>
<stop offset="1" stop-color="#B2C7FF"/>
</linearGradient>
<linearGradient id="paint21_linear_7_1229" x1="153.497" y1="94.5845" x2="159.677" y2="94.5845" gradientUnits="userSpaceOnUse">
<stop stop-color="#D1DEFF"/>
<stop offset="1" stop-color="#B2C7FF"/>
</linearGradient>
<linearGradient id="paint22_linear_7_1229" x1="160.655" y1="94.4474" x2="165.717" y2="94.4474" gradientUnits="userSpaceOnUse">
<stop stop-color="#D1DEFF"/>
<stop offset="1" stop-color="#B2C7FF"/>
</linearGradient>
<linearGradient id="paint23_linear_7_1229" x1="166.553" y1="95.6251" x2="170.739" y2="95.6251" gradientUnits="userSpaceOnUse">
<stop stop-color="#D1DEFF"/>
<stop offset="1" stop-color="#B2C7FF"/>
</linearGradient>
<linearGradient id="paint24_linear_7_1229" x1="195.252" y1="132.922" x2="195.252" y2="95.0762" gradientUnits="userSpaceOnUse">
<stop stop-color="#EBF2FF"/>
<stop offset="0.63" stop-color="#E7EEFF"/>
<stop offset="1" stop-color="#E1E8FF"/>
</linearGradient>
<linearGradient id="paint25_linear_7_1229" x1="162.695" y1="123.858" x2="162.695" y2="110.387" gradientUnits="userSpaceOnUse">
<stop stop-color="#D1DEFF"/>
<stop offset="1" stop-color="#B2C7FF"/>
</linearGradient>
<linearGradient id="paint26_linear_7_1229" x1="204.843" y1="114.063" x2="204.843" y2="115.667" gradientUnits="userSpaceOnUse">
<stop stop-color="#D1DEFF"/>
<stop offset="1" stop-color="#B2C7FF"/>
</linearGradient>
<linearGradient id="paint27_linear_7_1229" x1="204.843" y1="118.616" x2="204.843" y2="120.221" gradientUnits="userSpaceOnUse">
<stop stop-color="#D1DEFF"/>
<stop offset="1" stop-color="#B2C7FF"/>
</linearGradient>
<linearGradient id="paint28_linear_7_1229" x1="204.843" y1="123.17" x2="204.843" y2="124.775" gradientUnits="userSpaceOnUse">
<stop stop-color="#D1DEFF"/>
<stop offset="1" stop-color="#B2C7FF"/>
</linearGradient>
<linearGradient id="paint29_linear_7_1229" x1="195.374" y1="127.724" x2="195.374" y2="129.328" gradientUnits="userSpaceOnUse">
<stop stop-color="#D1DEFF"/>
<stop offset="1" stop-color="#B2C7FF"/>
</linearGradient>
<linearGradient id="paint30_linear_7_1229" x1="195.374" y1="132.277" x2="195.374" y2="133.881" gradientUnits="userSpaceOnUse">
<stop stop-color="#D1DEFF"/>
<stop offset="1" stop-color="#B2C7FF"/>
</linearGradient>
<linearGradient id="paint31_linear_7_1229" x1="195.374" y1="136.831" x2="195.374" y2="138.435" gradientUnits="userSpaceOnUse">
<stop stop-color="#D1DEFF"/>
<stop offset="1" stop-color="#B2C7FF"/>
</linearGradient>
<linearGradient id="paint32_linear_7_1229" x1="109.916" y1="55.8591" x2="80.5771" y2="55.8591" gradientUnits="userSpaceOnUse">
<stop stop-color="#D1DEFF"/>
<stop offset="1" stop-color="#B2C7FF"/>
</linearGradient>
<linearGradient id="paint33_linear_7_1229" x1="201.819" y1="189.683" x2="201.819" y2="190.679" gradientUnits="userSpaceOnUse">
<stop stop-color="#909EFF"/>
<stop offset="1" stop-color="#6977E3"/>
</linearGradient>
<linearGradient id="paint34_linear_7_1229" x1="201.819" y1="193.616" x2="201.819" y2="196.672" gradientUnits="userSpaceOnUse">
<stop stop-color="#909EFF"/>
<stop offset="1" stop-color="#6977E3"/>
</linearGradient>
</defs>
</svg>
