<svg width="36" height="16" viewBox="0 0 36 16" fill="none" xmlns="http://www.w3.org/2000/svg">
<path d="M5.48223 3.87538V14.6587C5.48223 14.9162 5.27344 15.125 5.01592 15.125H1.06714C0.809623 15.125 0.60083 14.9162 0.60083 14.6587V3.87538C0.60083 3.61781 0.809623 3.40906 1.06714 3.40906H5.01592C5.27348 3.40906 5.48223 3.61781 5.48223 3.87538Z" fill="white"/>
<path d="M13.0912 8.7704V14.6587C13.0912 14.9162 12.8824 15.125 12.6249 15.125H8.67615C8.41863 15.125 8.20984 14.9162 8.20984 14.6587V8.7704C8.20984 8.51288 8.41863 8.30408 8.67615 8.30408H12.6249C12.8825 8.30408 13.0912 8.51288 13.0912 8.7704Z" fill="url(#paint0_linear_7_1724)"/>
<path d="M20.7001 1.19349V14.6587C20.7001 14.9162 20.4913 15.125 20.2338 15.125H16.285C16.0275 15.125 15.8187 14.9162 15.8187 14.6587V1.19349C15.8187 0.935971 16.0275 0.727173 16.285 0.727173H20.2338C20.4914 0.727173 20.7001 0.935923 20.7001 1.19349Z" fill="white"/>
<path d="M28.3091 5.87684V14.6586C28.3091 14.9162 28.1003 15.125 27.8428 15.125H23.894C23.6365 15.125 23.4277 14.9162 23.4277 14.6586V5.87684C23.4277 5.61932 23.6365 5.41052 23.894 5.41052H27.8428C28.1004 5.41052 28.3091 5.61932 28.3091 5.87684Z" fill="url(#paint1_linear_7_1724)"/>
<path d="M35.918 10.573V14.6587C35.918 14.9162 35.7092 15.125 35.4517 15.125H31.5029C31.2454 15.125 31.0366 14.9162 31.0366 14.6587V10.573C31.0366 10.3155 31.2454 10.1067 31.5029 10.1067H35.4517C35.7093 10.1066 35.918 10.3154 35.918 10.573Z" fill="white"/>
<defs>
<linearGradient id="paint0_linear_7_1724" x1="8.20983" y1="11.7145" x2="13.0912" y2="11.7145" gradientUnits="userSpaceOnUse">
<stop offset="1.1e-07" stop-color="#B3B3FF"/>
<stop offset="1" stop-color="#C2D5FF"/>
</linearGradient>
<linearGradient id="paint1_linear_7_1724" x1="23.4277" y1="10.2677" x2="28.3092" y2="10.2677" gradientUnits="userSpaceOnUse">
<stop offset="1.1e-07" stop-color="#B3B3FF"/>
<stop offset="1" stop-color="#C2D5FF"/>
</linearGradient>
</defs>
</svg>
