<svg width="12" height="12" viewBox="0 0 12 12" fill="none" xmlns="http://www.w3.org/2000/svg">
<path d="M11.729 1.65013V7.05756C11.729 7.47718 11.3889 7.81731 10.9693 7.81731H0.899997C0.480381 7.81731 0.140259 7.47713 0.140259 7.05756V1.65013C0.140259 1.23051 0.480381 0.890381 0.899997 0.890381H10.9693C11.3889 0.890333 11.729 1.23051 11.729 1.65013Z" fill="url(#paint0_linear_7_1733)"/>
<path d="M11.7276 10.379C11.7276 10.8161 11.3733 11.1704 10.9363 11.1704H0.933347C0.496307 11.1704 0.141968 10.8161 0.141968 10.379C0.141968 9.94193 0.496307 9.58765 0.933347 9.58765H10.9363C11.3733 9.58765 11.7276 9.94198 11.7276 10.379Z" fill="url(#paint1_linear_7_1733)"/>
<defs>
<linearGradient id="paint0_linear_7_1733" x1="0.140288" y1="4.35385" x2="11.7291" y2="4.35385" gradientUnits="userSpaceOnUse">
<stop offset="1.1e-07" stop-color="#B3B3FF"/>
<stop offset="1" stop-color="#C2D5FF"/>
</linearGradient>
<linearGradient id="paint1_linear_7_1733" x1="0.141968" y1="10.379" x2="11.7276" y2="10.379" gradientUnits="userSpaceOnUse">
<stop offset="1.1e-07" stop-color="#B3B3FF"/>
<stop offset="1" stop-color="#C2D5FF"/>
</linearGradient>
</defs>
</svg>
