<svg width="51" height="55" viewBox="0 0 51 55" fill="none" xmlns="http://www.w3.org/2000/svg">
<path d="M50.0147 2.73355V52.402C50.0147 53.6009 49.0428 54.5728 47.8439 54.5728H3.0364C1.8375 54.5728 0.865601 53.6009 0.865601 52.402V2.73355C0.865601 1.53465 1.8375 0.562744 3.0364 0.562744H47.8439C49.0428 0.562744 50.0147 1.53465 50.0147 2.73355Z" fill="#E7ECFF"/>
<path d="M46.9643 5.17745V49.9582C46.9643 50.7921 46.2859 51.4705 45.452 51.4705H5.42843C4.59452 51.4705 3.91614 50.7921 3.91614 49.9582V5.17745C3.91614 4.34345 4.59452 3.66516 5.42843 3.66516H45.452C46.2859 3.66516 46.9643 4.3435 46.9643 5.17745Z" fill="url(#paint0_linear_7_1801)"/>
<g opacity="0.4">
<path d="M46.9644 5.70459V9.96483L13.2923 51.4705H9.83569L46.9644 5.70459Z" fill="white"/>
<path d="M46.9643 14.3677V24.2494L24.8807 51.4704H16.8656L46.9643 14.3677Z" fill="white"/>
<path d="M46.9644 33.2454V37.5057L35.6352 51.4705H32.1786L46.9644 33.2454Z" fill="white"/>
<path d="M15.6125 3.66516L3.91614 18.0836V8.20202L7.5975 3.66516H15.6125Z" fill="white"/>
<path d="M26.3714 3.66516L3.91614 31.3485V27.0839L22.9147 3.66516H26.3714Z" fill="white"/>
</g>
<path d="M50.0804 25.8796H26.7162V1.7085H23.3397V25.8796H0.800049V29.256H23.3397V53.1895H26.7162V29.256H50.0804V25.8796Z" fill="#E7ECFF"/>
<defs>
<linearGradient id="paint0_linear_7_1801" x1="3.91615" y1="27.5678" x2="46.9643" y2="27.5678" gradientUnits="userSpaceOnUse">
<stop stop-color="#E7ECFF"/>
<stop offset="1" stop-color="#C2D5FF"/>
</linearGradient>
</defs>
</svg>
