<svg width="24" height="36" viewBox="0 0 24 36" fill="none" xmlns="http://www.w3.org/2000/svg">
<path d="M12.7378 22.6012C12.6612 21.2601 13.256 19.0476 13.827 17.8318C14.3981 16.6159 15.2194 15.5282 16.1604 14.5696C16.8045 13.9136 17.5169 13.3076 18.3462 12.9108C19.1756 12.514 20.1353 12.3392 21.0269 12.5634C21.9185 12.7876 22.7207 13.4506 22.9815 14.3322C23.144 14.8816 23.0933 15.4776 22.927 16.0258C22.533 17.3245 21.5202 18.3641 20.3602 19.0684C19.2001 19.7727 17.8896 20.1828 16.5937 20.5857C15.2978 20.9885 13.8992 21.8992 12.7378 22.6012Z" fill="url(#paint0_linear_7_2664)"/>
<path d="M10.4695 23.8905C10.546 22.5494 9.9513 20.337 9.38024 19.1211C8.80919 17.9052 7.98792 16.8176 7.04688 15.859C6.40281 15.2029 5.69039 14.5969 4.86105 14.2001C4.0317 13.8033 3.07195 13.6285 2.18035 13.8527C1.2887 14.0769 0.486621 14.7399 0.225789 15.6215C0.063261 16.1709 0.11389 16.7669 0.280258 17.3151C0.67429 18.6138 1.68705 19.6535 2.84711 20.3577C4.00717 21.062 5.31762 21.4721 6.61353 21.875C7.90943 22.2779 9.30806 23.1886 10.4695 23.8905Z" fill="url(#paint1_linear_7_2664)"/>
<path d="M10.8951 20.5272C10.8951 20.5272 -0.729191 3.20921 10.3996 1.07177C21.2225 -1.00687 10.8951 20.5272 10.8951 20.5272Z" fill="url(#paint2_linear_7_2664)"/>
<path d="M11.7123 26.108C11.6558 26.108 11.6099 26.0621 11.6099 26.0055C11.6056 20.9734 19.3302 15.237 19.6592 14.9953C19.7045 14.9614 19.7688 14.9712 19.8022 15.0171C19.8358 15.0625 19.8259 15.1268 19.7803 15.1601C19.7008 15.2188 11.8104 21.0769 11.8147 26.0055C11.8148 26.062 11.7689 26.108 11.7123 26.108Z" fill="#ADC8F7"/>
<path d="M11.0253 25.9812C10.9709 25.9812 10.9255 25.9385 10.9229 25.8836C10.7214 21.5825 2.49765 16.135 2.41442 16.0806C2.36718 16.0496 2.35413 15.9861 2.38504 15.9387C2.41624 15.8911 2.47974 15.8781 2.52697 15.9093C2.86955 16.1342 10.9213 21.4694 11.1278 25.8739C11.1304 25.9305 11.0867 25.9785 11.0301 25.9812C11.0285 25.9812 11.027 25.9812 11.0253 25.9812Z" fill="#ADC8F7"/>
<path d="M11.8498 26.108C11.8042 26.108 11.7625 26.0775 11.7505 26.0314C9.76498 18.3983 10.4989 4.83742 10.5067 4.7011C10.5096 4.6448 10.556 4.60055 10.6147 4.60477C10.671 4.6077 10.7142 4.65627 10.7111 4.71282C10.7036 4.84832 9.97148 18.378 11.949 25.9796C11.9631 26.0346 11.9304 26.0903 11.8756 26.1047C11.8668 26.1069 11.8583 26.108 11.8498 26.108Z" fill="#ADC8F7"/>
<path d="M16.8533 25.1755C17.1905 25.1755 17.4638 25.4488 17.4638 25.786V30.2904C17.4638 32.8232 15.908 34.9779 13.71 35.8841C13.629 35.9175 13.5407 35.9336 13.4531 35.9336H9.31212C9.22452 35.9336 9.13621 35.9175 9.05524 35.8841C6.85717 34.9779 5.30139 32.8232 5.30139 30.2904V25.786C5.30139 25.4488 5.57475 25.1755 5.9119 25.1755H16.8533Z" fill="url(#paint3_linear_7_2664)"/>
<path d="M17.4638 27.5125V25.786C17.4638 25.4488 17.1905 25.1754 16.8533 25.1754H5.9119C5.57475 25.1754 5.30139 25.4488 5.30139 25.786V27.5125H17.4638Z" fill="#78A7FF"/>
<path d="M13.5906 31.0076C13.5906 32.2261 12.6016 33.2151 11.3831 33.2151C10.1619 33.2151 9.17566 32.2261 9.17566 31.0076C9.17566 29.7864 10.1619 28.7974 11.3831 28.7974C12.6016 28.7974 13.5906 29.7864 13.5906 31.0076Z" fill="#78A7FF"/>
<defs>
<linearGradient id="paint0_linear_7_2664" x1="12.7311" y1="17.5329" x2="23.0807" y2="17.5329" gradientUnits="userSpaceOnUse">
<stop stop-color="#E7ECFF"/>
<stop offset="1" stop-color="#C2D5FF"/>
</linearGradient>
<linearGradient id="paint1_linear_7_2664" x1="0.126593" y1="18.8222" x2="10.4762" y2="18.8222" gradientUnits="userSpaceOnUse">
<stop stop-color="#E7ECFF"/>
<stop offset="1" stop-color="#C2D5FF"/>
</linearGradient>
<linearGradient id="paint2_linear_7_2664" x1="5.57876" y1="10.7288" x2="15.3417" y2="10.7288" gradientUnits="userSpaceOnUse">
<stop stop-color="#E7ECFF"/>
<stop offset="1" stop-color="#C2D5FF"/>
</linearGradient>
<linearGradient id="paint3_linear_7_2664" x1="5.30133" y1="30.5545" x2="17.4638" y2="30.5545" gradientUnits="userSpaceOnUse">
<stop stop-color="#E7ECFF"/>
<stop offset="1" stop-color="#C2D5FF"/>
</linearGradient>
</defs>
</svg>
