<svg width="19" height="7" viewBox="0 0 19 7" fill="none" xmlns="http://www.w3.org/2000/svg">
<path d="M2.07951 6.32203C1.56745 6.05342 1.1584 5.6676 0.852444 5.16398C0.545676 4.66056 0.3927 4.06886 0.3927 3.38923C0.3927 2.7096 0.545676 2.1181 0.852444 1.61467C1.15844 1.11106 1.56745 0.725232 2.07951 0.456432C2.59119 0.188208 3.14924 0.0537109 3.75337 0.0537109C4.19818 0.0537109 4.58204 0.110347 4.90532 0.223627C5.22822 0.336907 5.52832 0.481629 5.80518 0.658029C5.9727 0.767181 6.05689 0.914061 6.05689 1.09853C6.05689 1.22438 6.00851 1.33982 5.91217 1.4446C5.8154 1.54982 5.70452 1.60214 5.57866 1.60214C5.48622 1.60214 5.39382 1.57699 5.3018 1.52663C5.02494 1.38388 4.78777 1.28102 4.59073 1.21809C4.39331 1.15516 4.14788 1.12368 3.85407 1.12368C3.13239 1.12368 2.56604 1.33132 2.15507 1.74686C1.74371 2.16216 1.53841 2.70965 1.53841 3.38928C1.53841 4.06886 1.74371 4.61654 2.15507 5.03188C2.56609 5.44737 3.13239 5.65507 3.85407 5.65507C4.14788 5.65507 4.39326 5.62358 4.59073 5.5607C4.78777 5.49778 5.02494 5.39515 5.3018 5.25235C5.39382 5.2018 5.48626 5.17666 5.57866 5.17666C5.70452 5.17666 5.8154 5.22917 5.91217 5.33419C6.00851 5.43922 6.05689 5.55441 6.05689 5.68027C6.05689 5.86473 5.97275 6.01181 5.80518 6.12077C5.52832 6.29697 5.22822 6.4417 4.90532 6.55498C4.58204 6.66826 4.19818 6.7249 3.75337 6.7249C3.14924 6.7248 2.59115 6.59069 2.07951 6.32203Z" fill="white"/>
<path d="M7.27765 6.15846C7.1349 6.05776 7.06372 5.91933 7.06372 5.74317C7.06372 5.60905 7.10975 5.49145 7.20215 5.39075C7.29416 5.29004 7.41177 5.23974 7.55452 5.23974C7.63002 5.23974 7.70553 5.25663 7.78103 5.29009C8.04964 5.40769 8.31786 5.49971 8.58652 5.56696C8.85513 5.63421 9.15719 5.66766 9.49305 5.66766C10.4243 5.66766 10.89 5.36991 10.89 4.7739C10.89 4.58099 10.783 4.43411 10.5691 4.33341C10.3552 4.23251 10.0047 4.11928 9.51825 3.99342C9.0227 3.87621 8.61369 3.75429 8.29079 3.62843C7.9679 3.50257 7.69103 3.31182 7.46015 3.05579C7.22927 2.79995 7.11407 2.46231 7.11407 2.04265C7.11407 1.45527 7.32565 0.977005 7.74964 0.607741C8.17324 0.238621 8.77967 0.053772 9.56864 0.053772C10.2144 0.053772 10.8228 0.158799 11.3935 0.368415C11.5111 0.402255 11.6012 0.465182 11.6641 0.557198C11.727 0.649838 11.7585 0.74617 11.7585 0.846874C11.7585 0.981178 11.7101 1.09859 11.6137 1.19929C11.5174 1.3 11.3978 1.3503 11.255 1.3503C11.2129 1.3503 11.1587 1.34204 11.0914 1.32515C10.6045 1.17414 10.1263 1.09859 9.65673 1.09859C9.20327 1.09859 8.84889 1.18038 8.59285 1.34401C8.33682 1.5076 8.209 1.7198 8.209 1.97977C8.209 2.23148 8.3266 2.41595 8.56137 2.53355C8.79613 2.65115 9.16112 2.76443 9.65668 2.87334C10.1514 2.99919 10.5542 3.12308 10.8649 3.24462C11.1752 3.36654 11.4418 3.55729 11.664 3.81726C11.8862 4.07761 11.9975 4.4259 11.9975 4.86203C11.9975 5.39905 11.7856 5.84387 11.362 6.19628C10.938 6.54865 10.3402 6.72486 9.56855 6.72486C8.72932 6.72481 7.96554 6.53603 7.27765 6.15846Z" fill="white"/>
<path d="M13.319 6.15846C13.1763 6.05776 13.1051 5.91933 13.1051 5.74317C13.1051 5.60905 13.1511 5.49145 13.2435 5.39075C13.336 5.29004 13.4532 5.23974 13.5963 5.23974C13.6718 5.23974 13.7473 5.25663 13.8228 5.29009C14.0911 5.40769 14.3597 5.49971 14.6283 5.56696C14.8966 5.63421 15.1986 5.66766 15.5345 5.66766C16.4658 5.66766 16.9315 5.36991 16.9315 4.7739C16.9315 4.58099 16.8245 4.43411 16.6105 4.33341C16.3966 4.23251 16.0462 4.11928 15.5597 3.99342C15.0645 3.87621 14.6555 3.75429 14.3326 3.62843C14.0093 3.50257 13.7325 3.31182 13.502 3.05579C13.2707 2.79995 13.1555 2.46231 13.1555 2.04265C13.1555 1.45527 13.3674 0.977005 13.7914 0.607741C14.215 0.238621 14.8211 0.053772 15.61 0.053772C16.2562 0.053772 16.8642 0.158799 17.4353 0.368415C17.5525 0.402255 17.6429 0.465182 17.7059 0.557198C17.7688 0.649838 17.8003 0.74617 17.8003 0.846874C17.8003 0.981178 17.7519 1.09859 17.6556 1.19929C17.5588 1.3 17.4393 1.3503 17.2968 1.3503C17.2548 1.3503 17.2001 1.34204 17.1328 1.32515C16.6464 1.17414 16.1681 1.09859 15.6981 1.09859C15.245 1.09859 14.8903 1.18038 14.6346 1.34401C14.3786 1.5076 14.2508 1.7198 14.2508 1.97977C14.2508 2.23148 14.368 2.41595 14.6031 2.53355C14.8379 2.65115 15.2029 2.76443 15.6981 2.87334C16.1932 2.99919 16.596 3.12308 16.9063 3.24462C17.217 3.36654 17.4832 3.55729 17.7059 3.81726C17.9281 4.07761 18.0394 4.4259 18.0394 4.86203C18.0394 5.39905 17.8274 5.84387 17.4038 6.19628C16.9798 6.54865 16.382 6.72486 15.61 6.72486C14.7707 6.72481 14.0073 6.53603 13.319 6.15846Z" fill="white"/>
</svg>
