<svg width="89" height="130" viewBox="0 0 89 130" fill="none" xmlns="http://www.w3.org/2000/svg">
<path d="M63.8566 54.6951C63.8566 54.6951 67.6302 51.2678 68.6738 52.3783C69.3557 53.1042 66.9368 54.9714 66.9368 54.9714C66.9368 54.9714 70.7375 54.6495 72.5123 54.7329C75.7643 54.8858 74.978 62.9433 64.3746 59.6399L63.8566 54.6951Z" fill="#FDCCC5"/>
<path d="M36.9017 29.6783C35.7482 30.2258 33.9282 33.1551 33.4188 36.5528C32.5218 42.536 34.9861 55.9761 40.4623 59.7054C45.3774 63.0528 64.2349 59.9274 64.2349 59.9274C65.2498 59.8424 64.7971 54.4386 63.7822 54.5236C63.7822 54.5236 49.261 54.8899 45.8572 51.5406C42.3896 48.1287 43.4092 37.0899 41.0668 32.6809C40.5212 31.6542 37.9519 29.1797 36.9017 29.6783Z" fill="url(#paint0_linear_7_1604)"/>
<path d="M76.6029 117.495C76.0802 119.764 76.5439 121.622 77.3358 123.344L72.1384 123.995L71.4055 118.146L76.6029 117.495Z" fill="#FDCCC5"/>
<path d="M88.205 125.314C88.2055 125.318 88.2055 125.318 88.2055 125.318L88.207 125.329C88.3181 125.935 88.0418 126.546 87.5054 126.864C86.4727 127.475 84.4471 128.36 81.6122 128.167C77.3728 127.871 73.5685 128.826 72.0551 129.168C71.5216 129.29 71.1315 128.555 70.9146 127.512C70.905 127.466 70.8953 127.42 70.8895 127.374C70.5725 125.689 70.7137 123.311 71.4651 122.425C71.5129 122.368 71.5616 122.319 71.6146 122.273C71.6783 122.218 71.7472 122.174 71.8215 122.141C72.9205 121.651 75.4531 124.219 76.6192 122.544C76.7494 122.363 76.6639 122.056 76.5481 121.694C76.4964 121.532 76.4389 121.355 76.3892 121.177C76.3424 121.003 76.3648 120.814 76.4201 120.632C76.5627 120.164 77.1351 119.986 77.5368 120.266C77.8563 120.488 78.308 120.789 78.9211 121.173C79.0316 121.242 79.1402 121.326 79.2526 121.41C79.3298 121.463 79.4075 121.52 79.4891 121.577C79.7743 121.788 80.0599 121.971 80.3388 122.133C80.4575 122.204 80.5753 122.268 80.6892 122.332C80.9907 122.486 81.2822 122.622 81.575 122.738C81.699 122.789 81.8225 122.836 81.9495 122.879C84.4614 123.749 86.5024 123.207 87.3247 123.794C87.8449 124.16 88.0849 124.761 88.1979 125.287C88.2026 125.295 88.2041 125.306 88.205 125.314Z" fill="url(#paint1_linear_7_1604)"/>
<path d="M71.6184 127.822C71.6184 127.822 70.6234 126.057 71.5525 124.177C71.5525 124.177 73.2615 125.652 74.7215 125.339C76.1815 125.026 77.5298 122.992 77.5298 122.992C77.5298 122.992 77.6307 123.628 77.1218 124.645C77.1218 124.645 78.0009 124.498 78.608 123.507C78.608 123.507 78.7325 124.298 78.0359 125.129C78.0359 125.129 79.0847 124.884 79.8464 124.139C79.8464 124.139 79.6455 124.988 79.0086 125.54C79.0086 125.54 80.3373 126.526 81.0699 126.441L79.2234 127.658L72.2668 128.717L71.6184 127.822Z" fill="#070159"/>
<path d="M87.5074 126.865C86.4741 127.474 84.4464 128.359 81.6136 128.165C77.3728 127.869 73.5695 128.825 72.0539 129.17C71.5227 129.29 71.1302 128.553 70.9146 127.513C70.9056 127.467 70.8966 127.421 70.8904 127.373C73.2334 125.986 77.0601 125.697 80.2194 126.678C83.6774 127.75 87.3082 126.467 88.1958 125.315C88.1986 125.313 88.2013 125.313 88.2038 125.315C88.2064 125.318 88.2037 125.318 88.2037 125.318C88.2063 125.321 88.2061 125.326 88.206 125.329C88.3199 125.935 88.0433 126.548 87.5074 126.865Z" fill="#070159"/>
<path d="M79.2537 121.409C79.0668 121.794 78.6964 122.339 78.0166 122.736C77.9628 122.769 77.8957 122.77 77.8413 122.748C77.8018 122.731 77.7672 122.703 77.7428 122.664C77.6865 122.569 77.7193 122.446 77.8146 122.39C78.445 122.022 78.767 121.504 78.9197 121.174C79.0283 121.247 79.1398 121.328 79.2537 121.409Z" fill="white"/>
<path d="M80.69 122.33C80.4898 122.698 80.075 123.273 79.313 123.645C79.2587 123.672 79.2011 123.672 79.1492 123.651C79.1047 123.632 79.0663 123.599 79.0448 123.553C78.9956 123.455 79.0368 123.333 79.1375 123.285C79.8057 122.958 80.1704 122.449 80.3398 122.134C80.4578 122.206 80.5739 122.268 80.69 122.33Z" fill="white"/>
<path d="M81.9497 122.878C81.7966 123.251 81.4296 123.921 80.6376 124.388C80.5827 124.423 80.5157 124.425 80.4613 124.402C80.4217 124.386 80.3872 124.357 80.3637 124.316C80.3075 124.221 80.3403 124.098 80.4356 124.042C81.1233 123.64 81.443 123.057 81.5737 122.738C81.7008 122.788 81.8255 122.836 81.9497 122.878Z" fill="white"/>
<path d="M76.7328 122.294C76.746 122.649 76.6192 123.014 76.3554 123.255C76.1687 123.423 75.9222 123.521 75.6728 123.564C75.4195 123.607 75.1633 123.596 74.9129 123.569C74.5954 123.538 74.2789 123.484 73.9711 123.405C73.4163 123.263 72.8797 123.048 72.3784 122.769C72.1294 122.628 71.8905 122.474 71.6613 122.302C71.6483 122.292 71.6314 122.283 71.6145 122.273C71.6781 122.218 71.7471 122.174 71.8214 122.141C72.9203 121.651 75.453 124.219 76.6191 122.544C76.7493 122.363 76.6638 122.056 76.5479 121.694C76.6715 121.867 76.7255 122.08 76.7328 122.294Z" fill="#070159"/>
<path d="M77.4716 119.294C77.5494 119.959 70.8086 120.729 70.7308 120.064L59.0307 78.1958L35.8639 80.8602L31.348 65.3716C46.3893 66.2157 56.9439 65.308 65.6723 69.9173C73.4789 74.0403 77.4716 119.294 77.4716 119.294Z" fill="url(#paint2_linear_7_1604)"/>
<path d="M50.4695 127.666H47.4705L45.4946 109.698H17.2907L15.3147 127.666H12.3158L17.2751 84.9445H20.2779L17.6913 106.369H45.0939L42.5073 84.9445H45.5101L50.4695 127.666Z" fill="url(#paint3_linear_7_1604)"/>
<path d="M11.0652 29.8419C18.1681 32.9271 -5.90075 87.0605 48.9421 77.7837C54.6823 77.7837 54.889 85.9882 48.9587 86.3615C48.9587 86.3615 12.5551 91.4018 5.22733 81.7612C-1.14419 73.3786 -2.21983 24.0715 11.0652 29.8419Z" fill="url(#paint4_linear_7_1604)"/>
<path d="M52.994 83.6929C52.4152 85.0946 51.0768 86.225 48.9607 86.3607C48.9607 86.3607 12.5529 91.4022 5.22793 81.7622C-0.849066 73.768 -2.10609 28.5657 9.30639 29.3841C2.8993 39.196 4.60393 72.2985 9.71789 79.0267C16.5636 88.0336 48.7799 84.2311 52.994 83.6929Z" fill="#C2D5FF"/>
<path d="M42.7397 65.9136C32.2798 66.931 22.644 66.2496 10.5682 65.3703C13.9704 48.7919 5.27841 35.2244 10.4899 30.0314C15.8902 24.6449 34.9546 24.7185 39.0105 31.1778C42.8593 37.3054 40.3318 53.7134 42.7397 65.9136Z" fill="url(#paint5_linear_7_1604)"/>
<path d="M24.722 45.3695L28.9213 49.8041L31.4273 45.3695C31.0023 40.9928 28.3355 35.4639 25.0553 29.6195C25.8602 35.6483 26.1791 41.2638 24.722 45.3695Z" fill="white"/>
<path d="M33.0373 14.817C32.8349 21.8705 30.7075 22.4284 27.6817 22.4284V26.3575L25.1466 29.9124L20.2509 26.3173V18.3661C19.8758 17.3886 18.6982 16.209 18.6982 14.817C18.6982 9.34803 21.9116 4.91062 25.8653 4.91062C29.8289 4.91057 33.3631 3.33603 33.0373 14.817Z" fill="#FDCCC5"/>
<path d="M21.0398 0.437669C17.6736 0.0918294 20.0484 3.64244 20.0484 3.64244C20.0484 3.64244 13.4228 4.93392 17.3714 10.8567C17.3714 10.8567 15.6453 14.4426 18.1903 16.9978L20.3701 13.0118C20.3701 13.0118 23.8547 12.1865 21.8272 9.81456C26.9965 10.2102 29.4016 9.47549 28.4302 7.2108C28.4302 7.2108 32.4171 5.19879 33.0515 11.4114C33.0515 11.4114 35.1348 10.5949 34.7297 8.53575C34.7297 8.53575 37.464 5.97029 34.2909 5.73399C34.2909 5.73399 37.7799 -0.62971 31.0504 0.400562C31.0504 0.400562 24.406 0.783509 21.0398 0.437669Z" fill="url(#paint6_linear_7_1604)"/>
<path d="M17.7227 14.3898C17.7188 14.3898 17.7151 14.3894 17.7112 14.389C17.656 14.3828 17.6165 14.3332 17.6226 14.2778C17.624 14.2653 17.7794 13.0175 19.1287 12.7876C20.2708 12.593 20.8846 13.3158 21.0247 13.5071L26.5535 13.8251C26.6092 13.8286 26.6514 13.8762 26.6483 13.9316C26.6451 13.987 26.6072 14.0302 26.5421 14.0263L20.9643 13.7052C20.9315 13.7033 20.9016 13.6852 20.8844 13.6573C20.8624 13.6215 20.3314 12.7848 19.1625 12.9857C17.965 13.19 17.8276 14.2554 17.8225 14.3006C17.8164 14.3517 17.7731 14.3898 17.7227 14.3898Z" fill="#47090E"/>
<path d="M30.6649 11.3131C30.5655 11.3408 30.4651 11.3741 30.3884 11.4342C30.3117 11.4943 30.2629 11.5868 30.2901 11.672C30.3272 11.7885 30.4816 11.8455 30.6204 11.8747C31.2549 12.0082 31.9583 11.885 32.4772 11.5495C32.5277 11.5169 32.5794 11.4784 32.5932 11.426C32.652 11.2034 31.8902 11.1912 31.7418 11.1864C31.3777 11.1746 31.011 11.2169 30.6649 11.3131Z" fill="url(#paint7_linear_7_1604)"/>
<path d="M26.8213 11.3131C26.7219 11.3408 26.6215 11.3741 26.5448 11.4342C26.4681 11.4943 26.4193 11.5868 26.4464 11.672C26.4836 11.7885 26.638 11.8455 26.7768 11.8747C27.4112 12.0082 28.1147 11.885 28.6336 11.5495C28.684 11.5169 28.7358 11.4784 28.7496 11.426C28.8084 11.2034 28.0466 11.1912 27.8982 11.1864C27.5342 11.1746 27.1674 11.2169 26.8213 11.3131Z" fill="url(#paint8_linear_7_1604)"/>
<path d="M18.2646 17.1415C19.0798 18.6483 20.5259 19.3125 21.4901 18.6247C22.4577 17.9345 22.5766 16.1539 21.7615 14.6472C20.9436 13.1353 19.5009 12.4687 18.5332 13.1589C17.5691 13.8466 17.4468 15.6296 18.2646 17.1415Z" fill="#FDCCC5"/>
<path d="M29.9932 17.448C29.9125 17.448 29.8315 17.4457 29.7527 17.4437L29.6297 17.4406C29.5187 17.4382 29.4303 17.3466 29.4324 17.2354C29.4346 17.1258 29.5242 17.0381 29.6336 17.0381C29.6348 17.0381 29.6362 17.0381 29.6376 17.0381L29.7639 17.0413C29.9869 17.0487 30.3986 17.0594 30.4624 16.9528C30.4894 16.9081 30.4721 16.7693 30.3343 16.5268C29.8075 15.5978 29.5715 14.6232 29.5617 14.5823C29.536 14.4742 29.6026 14.3658 29.7107 14.3398C29.8191 14.3158 29.9272 14.3807 29.9532 14.4888C29.9555 14.4982 30.1868 15.4504 30.6845 16.328C30.8881 16.6872 30.9282 16.9591 30.8074 17.16C30.658 17.4083 30.3287 17.448 29.9932 17.448Z" fill="#F7B4AD"/>
<path d="M28.9049 14.27C28.9049 14.4366 28.7687 14.573 28.602 14.573C28.4353 14.573 28.2991 14.4366 28.2991 14.27C28.2991 14.1035 28.4354 13.9672 28.602 13.9672C28.7686 13.9672 28.9049 14.1035 28.9049 14.27Z" fill="#47090E"/>
<path d="M32.5964 14.2285C32.5964 14.3951 32.4601 14.5315 32.2935 14.5315C32.1269 14.5315 31.9906 14.3951 31.9906 14.2285C31.9906 14.062 32.1269 13.9257 32.2935 13.9257C32.4601 13.9257 32.5964 14.062 32.5964 14.2285Z" fill="#47090E"/>
<path d="M29.7023 19.6908C28.9377 19.6908 28.327 19.2562 28.3169 19.2491C28.2273 19.1835 28.2077 19.0581 28.2727 18.9685C28.3376 18.8785 28.4637 18.858 28.5535 18.9237C28.6093 18.9638 29.928 19.8936 30.9667 18.6329C31.0373 18.5476 31.1644 18.5346 31.2499 18.6058C31.3357 18.6765 31.3479 18.803 31.2772 18.8891C30.77 19.5046 30.2031 19.6908 29.7023 19.6908Z" fill="#F7B4AD"/>
<path d="M31.8616 16.321C31.0355 16.321 30.3635 15.4788 30.3635 14.4432C30.3635 13.4081 31.0355 12.5659 31.8616 12.5659C32.6877 12.5659 33.3597 13.4081 33.3597 14.4432C33.3597 15.4788 32.6877 16.321 31.8616 16.321ZM31.8616 12.7671C31.1466 12.7671 30.5647 13.5189 30.5647 14.4432C30.5647 15.3676 31.1466 16.1197 31.8616 16.1197C32.5767 16.1197 33.1585 15.3675 33.1585 14.4432C33.1585 13.5189 32.5767 12.7671 31.8616 12.7671Z" fill="#47090E"/>
<path d="M27.8844 16.321C27.0584 16.321 26.3864 15.4788 26.3864 14.4432C26.3864 13.4081 27.0584 12.5659 27.8844 12.5659C28.7105 12.5659 29.3825 13.4081 29.3825 14.4432C29.3826 15.4788 28.7105 16.321 27.8844 16.321ZM27.8844 12.7671C27.1694 12.7671 26.5876 13.5189 26.5876 14.4432C26.5876 15.3676 27.1694 16.1197 27.8844 16.1197C28.5995 16.1197 29.1813 15.3675 29.1813 14.4432C29.1813 13.5189 28.5995 12.7671 27.8844 12.7671Z" fill="#47090E"/>
<path d="M30.556 13.9115C30.5374 13.9115 30.5185 13.9064 30.5016 13.8954C29.9813 13.5605 29.2409 13.8985 29.2336 13.902C29.1833 13.9252 29.1231 13.9036 29.0998 13.8533C29.0764 13.803 29.098 13.7433 29.1483 13.7197C29.1825 13.7036 29.9963 13.3298 30.6104 13.7264C30.6572 13.7562 30.6707 13.8187 30.6405 13.8655C30.6214 13.8954 30.589 13.9115 30.556 13.9115Z" fill="#47090E"/>
<path d="M27.6818 22.3992C27.6818 22.3992 25.528 22.2874 23.8879 21.2201C23.8879 21.2201 24.7842 23.2569 27.6818 23.6372V22.3992Z" fill="#F7B4AD"/>
<path d="M20.2864 26.3458C20.2864 26.3458 19.0331 26.0516 18.7521 26.4846C18.005 27.636 20.4475 31.5499 21.9941 32.0272C23.0454 32.3517 25.1467 29.9124 25.1467 29.9124L20.2864 26.3458Z" fill="white"/>
<path d="M27.6818 26.3575C27.6818 26.3575 28.9293 26.077 29.4016 26.4846C30.608 27.5257 30.3685 31.4813 29.1095 32.0272C28.2184 32.4135 25.1467 29.9124 25.1467 29.9124L27.6818 26.3575Z" fill="white"/>
<path d="M61.7928 117.76C60.9921 119.946 61.2211 121.848 61.7928 123.655H56.5548V117.76H61.7928Z" fill="#FDCCC5"/>
<path d="M72.3328 126.961C72.3328 126.965 72.3328 126.965 72.3328 126.965V126.976C72.3678 127.591 72.0177 128.163 71.446 128.412C70.3452 128.89 68.2254 129.516 65.4364 128.972C61.2667 128.151 57.3732 128.626 55.8289 128.777C55.2844 128.832 54.9888 128.054 54.9032 126.992C54.8993 126.945 54.8954 126.899 54.8954 126.852C54.7904 125.14 55.226 122.799 56.0817 122.013C56.1362 121.963 56.1906 121.92 56.249 121.881C56.319 121.834 56.3929 121.799 56.4707 121.776C57.6221 121.426 59.8158 124.289 61.1811 122.772C61.3328 122.608 61.2861 122.293 61.2161 121.92C61.185 121.752 61.15 121.57 61.1227 121.387C61.0979 121.209 61.1437 121.024 61.2212 120.85C61.4209 120.404 62.0109 120.298 62.3747 120.625C62.6642 120.886 63.0748 121.241 63.6354 121.698C63.7366 121.78 63.8338 121.877 63.935 121.974C64.005 122.036 64.075 122.103 64.1489 122.169C64.4056 122.414 64.6662 122.632 64.923 122.826C65.0319 122.911 65.1408 122.989 65.2458 123.067C65.5259 123.258 65.7981 123.429 66.0743 123.581C66.191 123.647 66.3077 123.709 66.4282 123.767C68.8126 124.942 70.9052 124.658 71.6482 125.343C72.1188 125.77 72.2822 126.397 72.3289 126.933C72.3328 126.941 72.3328 126.953 72.3328 126.961Z" fill="url(#paint9_linear_7_1604)"/>
<path d="M55.563 127.387C55.563 127.387 54.7951 125.512 55.9508 123.762C55.9508 123.762 57.4631 125.439 58.9507 125.309C60.4383 125.18 62.029 123.33 62.029 123.33C62.029 123.33 62.05 123.973 61.4187 124.919C61.4187 124.919 62.3093 124.883 63.0349 123.974C63.0349 123.974 63.06 124.775 62.2654 125.513C62.2654 125.513 63.3366 125.401 64.185 124.755C64.185 124.755 63.8801 125.573 63.1795 126.041C63.1795 126.041 64.3753 127.185 65.1129 127.192L63.1294 128.17L56.0952 128.355L55.563 127.387Z" fill="#070159"/>
<path d="M71.4477 128.413C70.3467 128.888 68.2247 129.514 65.4379 128.971C61.2668 128.15 57.3743 128.625 55.8275 128.779C55.2855 128.832 54.9876 128.052 54.903 126.993C54.8998 126.946 54.8965 126.9 54.8964 126.851C57.3937 125.766 61.2265 125.955 64.2394 127.321C67.5374 128.815 71.2994 127.993 72.3234 126.961C72.3265 126.959 72.3291 126.959 72.3313 126.962C72.3335 126.965 72.3309 126.965 72.3309 126.965C72.3331 126.968 72.3322 126.973 72.3318 126.976C72.3696 127.591 72.0188 128.165 71.4477 128.413Z" fill="#070159"/>
<path d="M63.9363 121.973C63.703 122.332 63.2678 122.826 62.5439 123.136C62.4863 123.162 62.4197 123.155 62.3685 123.126C62.3313 123.105 62.3006 123.072 62.2811 123.031C62.2372 122.929 62.2849 122.812 62.3865 122.768C63.0577 122.481 63.4417 122.007 63.6342 121.698C63.7328 121.785 63.8334 121.878 63.9363 121.973Z" fill="white"/>
<path d="M65.2469 123.065C65.0024 123.406 64.5194 123.925 63.717 124.2C63.6598 124.22 63.6028 124.212 63.5538 124.184C63.512 124.161 63.478 124.123 63.4624 124.074C63.4257 123.971 63.4818 123.855 63.5877 123.82C64.2914 123.579 64.7165 123.119 64.9237 122.828C65.032 122.914 65.1394 122.99 65.2469 123.065Z" fill="white"/>
<path d="M66.4287 123.766C66.2304 124.118 65.7829 124.737 64.9391 125.101C64.8802 125.129 64.8135 125.122 64.7624 125.093C64.7251 125.072 64.6945 125.04 64.6763 124.996C64.6323 124.894 64.6801 124.777 64.7816 124.733C65.5141 124.419 65.9036 123.881 66.073 123.581C66.193 123.645 66.3107 123.709 66.4287 123.766Z" fill="white"/>
<path d="M61.325 122.538C61.2939 122.892 61.1228 123.238 60.8311 123.445C60.6249 123.588 60.3682 123.655 60.1153 123.666C59.8586 123.678 59.6058 123.635 59.3607 123.577C59.0495 123.507 58.7423 123.413 58.4467 123.297C57.9138 123.087 57.4081 122.807 56.9453 122.468C56.7158 122.297 56.498 122.114 56.2918 121.916C56.2801 121.904 56.2646 121.893 56.249 121.881C56.319 121.834 56.3929 121.799 56.4707 121.776C57.6221 121.426 59.8159 124.289 61.1811 122.772C61.3328 122.608 61.2861 122.293 61.2161 121.92C61.3173 122.107 61.3445 122.324 61.325 122.538Z" fill="#070159"/>
<path d="M62.4185 120.064C62.3991 120.768 54.9971 120.601 55.0126 119.897L52.0759 81.6109C52.0759 81.6109 20.6086 84.4893 14.2528 81.0819C8.77623 78.1491 8.30554 61.9681 12.7086 63.5123C28.4579 69.0396 50.3294 59.8638 60.5126 72.0384C66.8839 79.6545 62.4185 120.064 62.4185 120.064Z" fill="url(#paint10_linear_7_1604)"/>
<defs>
<linearGradient id="paint0_linear_7_1604" x1="32.0413" y1="40.604" x2="66.564" y2="60.5972" gradientUnits="userSpaceOnUse">
<stop offset="2.2e-07" stop-color="#FC6865"/>
<stop offset="1" stop-color="#F24E4E"/>
</linearGradient>
<linearGradient id="paint1_linear_7_1604" x1="70.6201" y1="125.348" x2="87.9399" y2="123.178" gradientUnits="userSpaceOnUse">
<stop offset="3.2e-07" stop-color="#78A7FF"/>
<stop offset="1" stop-color="#3D79F3"/>
</linearGradient>
<linearGradient id="paint2_linear_7_1604" x1="76.0764" y1="91.3086" x2="37.2021" y2="93.7786" gradientUnits="userSpaceOnUse">
<stop stop-color="#771E24"/>
<stop offset="1" stop-color="#47090E"/>
</linearGradient>
<linearGradient id="paint3_linear_7_1604" x1="31.1426" y1="132.946" x2="32.5996" y2="102.177" gradientUnits="userSpaceOnUse">
<stop stop-color="#E7ECFF"/>
<stop offset="1" stop-color="#C2D5FF"/>
</linearGradient>
<linearGradient id="paint4_linear_7_1604" x1="0.664799" y1="58.526" x2="53.3272" y2="58.526" gradientUnits="userSpaceOnUse">
<stop stop-color="#E7ECFF"/>
<stop offset="1" stop-color="#C2D5FF"/>
</linearGradient>
<linearGradient id="paint5_linear_7_1604" x1="23.8679" y1="37.8066" x2="29.1267" y2="76.3951" gradientUnits="userSpaceOnUse">
<stop offset="2.2e-07" stop-color="#FC6865"/>
<stop offset="1" stop-color="#F24E4E"/>
</linearGradient>
<linearGradient id="paint6_linear_7_1604" x1="35.8247" y1="8.64279" x2="16.1157" y2="8.64279" gradientUnits="userSpaceOnUse">
<stop stop-color="#771E24"/>
<stop offset="1" stop-color="#47090E"/>
</linearGradient>
<linearGradient id="paint7_linear_7_1604" x1="30.2824" y1="11.556" x2="32.5964" y2="11.556" gradientUnits="userSpaceOnUse">
<stop stop-color="#771E24"/>
<stop offset="1" stop-color="#47090E"/>
</linearGradient>
<linearGradient id="paint8_linear_7_1604" x1="26.4388" y1="11.556" x2="28.7529" y2="11.556" gradientUnits="userSpaceOnUse">
<stop stop-color="#771E24"/>
<stop offset="1" stop-color="#47090E"/>
</linearGradient>
<linearGradient id="paint9_linear_7_1604" x1="54.88" y1="124.809" x2="72.3352" y2="124.809" gradientUnits="userSpaceOnUse">
<stop offset="3.2e-07" stop-color="#78A7FF"/>
<stop offset="1" stop-color="#3D79F3"/>
</linearGradient>
<linearGradient id="paint10_linear_7_1604" x1="36.3369" y1="94.7324" x2="37.8404" y2="60.261" gradientUnits="userSpaceOnUse">
<stop stop-color="#771E24"/>
<stop offset="1" stop-color="#47090E"/>
</linearGradient>
</defs>
</svg>
