<svg width="18" height="7" viewBox="0 0 18 7" fill="none" xmlns="http://www.w3.org/2000/svg">
<path d="M1.82982 6.57094C1.38774 6.3393 1.03499 6.00617 0.770698 5.57158C0.506026 5.13699 0.374268 4.62651 0.374268 4.0399C0.374268 3.4533 0.506026 2.94281 0.770698 2.50822C1.03499 2.07363 1.38779 1.74071 1.82982 1.50887C2.27147 1.27722 2.75324 1.16119 3.27438 1.16119C3.65824 1.16119 3.98977 1.20997 4.2686 1.30789C4.54705 1.40562 4.80625 1.53051 5.04534 1.68271C5.19006 1.7767 5.26244 1.90376 5.26244 2.06283C5.26244 2.17155 5.22078 2.27105 5.1374 2.36153C5.05441 2.45221 4.95846 2.49742 4.8495 2.49742C4.77006 2.49742 4.69024 2.47559 4.61075 2.43234C4.37161 2.30927 4.16713 2.22036 3.99683 2.16608C3.82652 2.11179 3.61494 2.08467 3.36126 2.08467C2.73827 2.08467 2.24982 2.26381 1.89505 2.62232C1.5399 2.98083 1.36254 3.45334 1.36254 4.03995C1.36254 4.62656 1.5399 5.09926 1.89505 5.45758C2.24982 5.81628 2.73827 5.99542 3.36126 5.99542C3.61494 5.99542 3.82652 5.96811 3.99683 5.91383C4.16713 5.85954 4.37166 5.77106 4.61075 5.64775C4.69019 5.60431 4.77001 5.58267 4.8495 5.58267C4.95846 5.58267 5.05441 5.62789 5.1374 5.71837C5.22078 5.80904 5.26244 5.90854 5.26244 6.01726C5.26244 6.17652 5.19006 6.3032 5.04534 6.39738C4.8062 6.54939 4.54705 6.67443 4.2686 6.77197C3.98977 6.86989 3.65824 6.91865 3.27438 6.91865C2.75324 6.9186 2.27147 6.80298 1.82982 6.57094Z" fill="white"/>
<path d="M8.39658 5.55543C8.31321 5.47205 8.27149 5.37255 8.27149 5.25653V3.47492H6.48988C6.37386 3.47492 6.27633 3.43517 6.19645 3.35554C6.11701 3.27591 6.07727 3.17818 6.07727 3.06236C6.07727 2.93924 6.11697 2.83781 6.19645 2.75794C6.27628 2.6785 6.37381 2.63856 6.48988 2.63856H8.27149V0.856947C8.27149 0.734067 8.31316 0.632589 8.39658 0.552717C8.47957 0.473277 8.57946 0.43335 8.6951 0.43335C8.81822 0.43335 8.91969 0.473277 8.99951 0.552717C9.07895 0.632541 9.11908 0.734019 9.11908 0.856947V2.63856H10.8897C11.0128 2.63856 11.1139 2.6785 11.1937 2.75794C11.2736 2.83776 11.3133 2.93924 11.3133 3.06236C11.3133 3.17818 11.2736 3.27591 11.1937 3.35554C11.1139 3.43517 11.0128 3.47492 10.8897 3.47492H9.11908V5.25653C9.11908 5.37255 9.07895 5.47205 8.99951 5.55543C8.91969 5.6388 8.81822 5.68033 8.6951 5.68033C8.57946 5.68033 8.47957 5.6388 8.39658 5.55543Z" fill="white"/>
<path d="M14.5016 5.55543C14.4183 5.47205 14.3765 5.37255 14.3765 5.25653V3.47492H12.5949C12.4789 3.47492 12.3814 3.43517 12.3016 3.35554C12.2221 3.27591 12.1824 3.17818 12.1824 3.06236C12.1824 2.93924 12.2221 2.83781 12.3016 2.75794C12.3814 2.6785 12.4789 2.63856 12.5949 2.63856H14.3765V0.856947C14.3765 0.734067 14.4183 0.632589 14.5016 0.552717C14.5846 0.473277 14.6845 0.43335 14.8001 0.43335C14.9233 0.43335 15.0247 0.473277 15.1046 0.552717C15.184 0.632541 15.2241 0.734019 15.2241 0.856947V2.63856H16.9948C17.1179 2.63856 17.2189 2.6785 17.2988 2.75794C17.3786 2.83776 17.4184 2.93924 17.4184 3.06236C17.4184 3.17818 17.3786 3.27591 17.2988 3.35554C17.219 3.43517 17.1179 3.47492 16.9948 3.47492H15.2241V5.25653C15.2241 5.37255 15.184 5.47205 15.1046 5.55543C15.0247 5.6388 14.9233 5.68033 14.8001 5.68033C14.6845 5.68033 14.5846 5.6388 14.5016 5.55543Z" fill="white"/>
</svg>
