<svg width="41" height="25" viewBox="0 0 41 25" fill="none" xmlns="http://www.w3.org/2000/svg">
<path d="M40.0801 20.6428V23.0341C40.0801 23.5734 39.6429 24.0106 39.1036 24.0106H1.51496C0.975636 24.0106 0.538452 23.5734 0.538452 23.0341V20.6428C0.538452 20.1034 0.975636 19.6663 1.51496 19.6663H39.1036C39.6429 19.6663 40.0801 20.1034 40.0801 20.6428Z" fill="url(#paint0_linear_7_1775)"/>
<path d="M9.92571 0.876566V19.0142C9.92571 19.3738 9.63171 19.6678 9.27199 19.6678H3.61697C3.25726 19.6678 2.96326 19.3738 2.96326 19.0142V0.876566C2.96326 0.51695 3.25726 0.2229 3.61697 0.2229H9.27199C9.63171 0.2229 9.92571 0.51695 9.92571 0.876566Z" fill="url(#paint1_linear_7_1775)"/>
<path d="M9.92566 3.39795H2.96326V4.94744H9.92566V3.39795Z" fill="#B3B3FF"/>
<path d="M8.18598 7.76131V16.6466C8.18598 16.852 8.01947 17.0185 7.81408 17.0185H5.07491C4.86952 17.0185 4.703 16.852 4.703 16.6466V7.76131C4.703 7.55592 4.86952 7.3894 5.07491 7.3894H7.81408C8.01947 7.38945 8.18598 7.55592 8.18598 7.76131Z" fill="#B3B3FF"/>
<path d="M16.0299 3.19275V19.0948C16.0299 19.4101 15.7722 19.6679 15.4568 19.6679H10.4988C10.1834 19.6679 9.92566 19.4101 9.92566 19.0948V3.19275C9.92566 2.87744 10.1834 2.61963 10.4988 2.61963H15.4568C15.7722 2.61968 16.0299 2.87744 16.0299 3.19275Z" fill="url(#paint2_linear_7_1775)"/>
<path d="M16.0299 5.40344H9.92566V6.76194H16.0299V5.40344Z" fill="#B3B3FF"/>
<path d="M14.3706 16.5304C14.3706 17.2998 13.7491 17.9212 12.9797 17.9212C12.2104 17.9212 11.5851 17.2998 11.5851 16.5304C11.5851 15.7611 12.2104 15.1357 12.9797 15.1357C13.7491 15.1357 14.3706 15.7611 14.3706 16.5304Z" fill="#B3B3FF"/>
<path d="M14.3706 12.5385C14.3706 13.3078 13.7491 13.9293 12.9797 13.9293C12.2104 13.9293 11.5851 13.3078 11.5851 12.5385C11.5851 11.7691 12.2104 11.1438 12.9797 11.1438C13.7491 11.1438 14.3706 11.7691 14.3706 12.5385Z" fill="#B3B3FF"/>
<path d="M22.9924 0.876566V19.0142C22.9924 19.3738 22.6984 19.6678 22.3386 19.6678H16.6836C16.3239 19.6678 16.0299 19.3738 16.0299 19.0142V0.876566C16.0299 0.51695 16.3239 0.2229 16.6836 0.2229H22.3386C22.6984 0.2229 22.9924 0.51695 22.9924 0.876566Z" fill="url(#paint3_linear_7_1775)"/>
<path d="M22.9923 2.49329H16.0299V4.04277H22.9923V2.49329Z" fill="#B3B3FF"/>
<path d="M22.9923 15.8479H16.0299V17.3974H22.9923V15.8479Z" fill="#B3B3FF"/>
<path d="M20.9812 9.94543C20.9812 11.9687 20.324 13.6082 19.5112 13.6082C18.6984 13.6082 18.0413 11.9687 18.0413 9.94543C18.0413 7.92203 18.6984 6.28259 19.5112 6.28259C20.324 6.28259 20.9812 7.92199 20.9812 9.94543Z" fill="#B3B3FF"/>
<path d="M35.4528 10.2772C35.2673 10.8668 35.0131 11.5378 34.5235 12.0483C34.2463 12.34 33.9087 12.5484 33.5441 12.6504C33.4045 12.6922 33.2753 12.7067 33.1523 12.7067C32.9898 12.7067 32.8356 12.6818 32.6793 12.6546C32.6189 12.6463 32.5564 12.6359 32.4939 12.6254C32.2209 12.588 31.95 12.5755 31.6854 12.5629C31.1228 12.5359 30.5414 12.5088 29.9663 12.2254C29.633 12.0607 29.4058 11.8629 29.2683 11.6232C29.0141 11.1732 29.112 10.6459 29.2433 10.1001C29.3579 9.62074 29.4517 9.11866 29.2225 8.73312C29.1579 8.62474 29.0704 8.52893 28.9766 8.4289C28.862 8.30597 28.7453 8.18093 28.6682 8.02253C28.5369 7.75373 28.5286 7.42042 28.6411 6.99941C28.6682 6.90355 28.6974 6.80986 28.7265 6.71607C28.7953 6.49733 28.8599 6.29314 28.8786 6.07843C28.9037 5.77219 28.8286 5.45544 28.7578 5.15126L28.7495 5.11584C28.6682 4.76573 28.5974 4.42397 28.6473 4.08221C28.6932 3.76142 28.8807 3.36341 29.2663 3.21547C29.6267 3.07373 30.0851 3.20093 30.4894 3.5509C30.6936 3.72802 30.8728 3.93845 31.0478 4.14062C31.3625 4.5073 31.6605 4.85539 32.0814 5.0137C32.1897 5.05541 32.3022 5.08248 32.4231 5.11167C32.6565 5.16792 32.8982 5.22624 33.0941 5.38882C33.4296 5.66799 33.4858 6.14304 33.5004 6.47645L33.5046 6.62856C33.515 6.93696 33.5254 7.25582 33.6671 7.51411C33.8421 7.83086 34.1797 8.01216 34.536 8.20589C34.934 8.42059 35.3466 8.6435 35.5195 9.07488C35.6716 9.4561 35.5778 9.87917 35.4528 10.2772Z" fill="url(#paint4_linear_7_1775)"/>
<path d="M33.9109 9.43733C33.9215 9.38074 33.8845 9.32645 33.8279 9.31565C33.7723 9.30509 33.717 9.34191 33.7062 9.39869C33.7041 9.40978 33.4887 10.4748 32.5553 11.0903C32.4755 10.7299 32.3869 10.3717 32.2908 10.0184C32.2906 10.0161 32.2915 10.0139 32.2911 10.0114C32.2896 10.0017 32.2853 9.99332 32.2814 9.98468C32.2278 9.78903 32.1722 9.59511 32.1149 9.40301C32.7485 8.7649 32.7799 7.83221 32.7809 7.7918C32.7823 7.73444 32.7367 7.68658 32.6794 7.68519C32.6134 7.68682 32.574 7.72935 32.5725 7.78671C32.5723 7.79545 32.545 8.597 32.0455 9.17367C31.9554 8.88096 31.862 8.59421 31.7667 8.31442C31.7665 8.31188 31.7673 8.30952 31.7669 8.30698C31.7643 8.29191 31.7584 8.27861 31.7504 8.26681C31.689 8.08733 31.627 7.90997 31.5644 7.73722C32.0618 7.03863 32.0185 6.1093 32.0164 6.06922C32.0131 6.01186 31.9744 5.96765 31.9067 5.97092C31.8493 5.97399 31.8054 6.023 31.8084 6.0806C31.8088 6.08905 31.8443 6.86981 31.4749 7.49362C31.4161 7.33488 31.3574 7.17884 31.2988 7.02745C31.2979 7.02265 31.2984 7.01789 31.2968 7.01319C31.2944 7.00647 31.2898 7.00138 31.2863 6.99538C31.1957 6.76176 31.106 6.53775 31.0183 6.32396C31.399 5.81991 31.306 5.11421 31.3017 5.08349C31.2936 5.02652 31.2421 4.98764 31.1839 4.99498C31.1269 5.00309 31.0872 5.0558 31.0954 5.11277C31.0963 5.11877 31.1685 5.66544 30.9225 6.09236C30.8614 5.94634 30.8022 5.8081 30.7442 5.67399C30.7416 5.66472 30.738 5.65647 30.7331 5.64845C30.2832 4.61137 29.9413 3.95209 29.9319 3.93394C29.905 3.88306 29.8419 3.86377 29.791 3.88997C29.7401 3.91685 29.7204 3.97973 29.7471 4.03081C29.756 4.0478 30.0638 4.64055 30.4785 5.58504C29.7033 5.49053 29.4276 4.86183 29.4154 4.83336C29.3928 4.78047 29.3313 4.75584 29.2791 4.77802C29.2262 4.8002 29.2011 4.86106 29.2233 4.91396C29.2378 4.94876 29.5844 5.74551 30.5722 5.80047C30.7246 6.15375 30.8886 6.54922 31.0559 6.97733C30.2821 7.14682 29.7308 6.20232 29.7249 6.19229C29.6967 6.14204 29.6325 6.12476 29.5829 6.15322C29.533 6.18149 29.5154 6.245 29.5436 6.29506C29.5497 6.30567 30.0723 7.21037 30.8663 7.21037C30.9514 7.21037 31.0407 7.19549 31.1319 7.1725C31.2615 7.51008 31.3922 7.86576 31.5203 8.23551C30.596 8.31437 29.9271 7.51109 29.9203 7.50274C29.8839 7.45796 29.8183 7.45167 29.7738 7.48767C29.7293 7.5241 29.7223 7.58962 29.7587 7.63416C29.7884 7.67079 30.4357 8.45218 31.3866 8.45218C31.4527 8.45218 31.5208 8.4469 31.5897 8.43884C31.7526 8.9198 31.9093 9.42188 32.0523 9.936C30.9994 10.0318 30.2597 9.26564 30.252 9.25757C30.2123 9.21567 30.1466 9.2136 30.1047 9.2533C30.0628 9.29256 30.0607 9.35852 30.1003 9.40042C30.132 9.43421 30.8235 10.156 31.8627 10.156C31.9425 10.156 32.0252 10.15 32.1091 10.1407C32.2551 10.6833 32.3841 11.2373 32.4871 11.7918C31.3332 12.0976 30.2599 11.0714 30.249 11.0609C30.2077 11.021 30.1418 11.0218 30.1017 11.0625C30.0614 11.1038 30.0622 11.1697 30.1034 11.2098C30.1451 11.2507 30.9897 12.0625 32.0375 12.0625C32.1955 12.0625 32.3582 12.0427 32.5235 12.0004C32.6059 12.4753 32.6692 12.9495 32.7052 13.4161C32.7093 13.4708 32.7548 13.5123 32.8088 13.5123C32.8117 13.5123 32.8143 13.5123 32.817 13.5119C32.8744 13.5076 32.9173 13.4576 32.9128 13.4002C32.8735 12.889 32.8021 12.3685 32.7082 11.848C32.7074 11.8442 32.7081 11.8404 32.7068 11.8366C32.7066 11.8359 32.7061 11.8355 32.7058 11.8349C32.674 11.6587 32.6401 11.4826 32.6032 11.3067C33.6687 10.6504 33.9016 9.48759 33.9109 9.43733Z" fill="#C2D5FF"/>
<path d="M39.8224 6.83069C39.7286 7.02024 39.5869 7.17235 39.4493 7.31823C39.3347 7.44327 39.2264 7.55995 39.1451 7.69541C38.8617 8.17258 38.9763 8.78938 39.118 9.37906C39.2764 10.0396 39.3952 10.6772 39.0889 11.221C38.9284 11.5044 38.6451 11.7481 38.2491 11.9441C37.899 12.1169 37.549 12.2108 37.1989 12.267C36.8509 12.3233 36.503 12.34 36.1612 12.3545C35.8382 12.3692 35.507 12.3858 35.1735 12.4317C35.0943 12.442 35.0193 12.4546 34.9464 12.4671C34.7547 12.4983 34.5692 12.5296 34.3734 12.5296C34.2254 12.5296 34.0691 12.5109 33.9025 12.463C33.4628 12.3379 33.0523 12.0858 32.7169 11.7358C32.123 11.1148 31.8146 10.3001 31.5895 9.5833C31.4395 9.10195 31.3249 8.59138 31.5083 8.13303C31.7146 7.61415 32.2146 7.34328 32.696 7.08283C33.1356 6.84739 33.5482 6.62232 33.7649 6.2305C33.942 5.91173 33.9525 5.52 33.9649 5.1407L33.9711 4.95533C33.9879 4.55314 34.0587 3.98011 34.4587 3.6467C34.6942 3.45086 34.9859 3.38002 35.2672 3.3133C35.4089 3.27787 35.5548 3.2425 35.6881 3.19253C36.207 2.99659 36.5716 2.5715 36.9571 2.12146C37.1697 1.87555 37.3885 1.61923 37.6364 1.40467C38.122 0.981601 38.672 0.829537 39.1054 0.998305C39.5659 1.17749 39.7889 1.65264 39.8451 2.03813C39.9035 2.45069 39.8201 2.86531 39.7201 3.2904L39.7097 3.33211C39.6222 3.70714 39.5326 4.09262 39.5638 4.46981C39.5847 4.73443 39.6638 4.98658 39.7493 5.25538C39.7847 5.36789 39.8201 5.48247 39.8513 5.59714C39.9891 6.10555 39.9808 6.50765 39.8224 6.83069Z" fill="url(#paint5_linear_7_1775)"/>
<path d="M39.1435 3.04037C39.1657 2.98747 39.1407 2.92661 39.0878 2.90424C39.0353 2.88269 38.9743 2.90688 38.9515 2.96002C38.9362 2.99573 38.5858 3.79349 37.5974 3.89391C38.1116 2.72016 38.4945 1.98264 38.5056 1.96167C38.5323 1.9106 38.5125 1.84771 38.4617 1.82083C38.411 1.7952 38.3479 1.81412 38.3208 1.8648C38.3093 1.88679 37.8925 2.69055 37.344 3.95472C37.3383 3.96379 37.3341 3.97335 37.3314 3.98405C37.255 4.16026 37.1768 4.34381 37.0962 4.53682C36.7654 4.00512 36.8578 3.29607 36.8589 3.2882C36.8669 3.23122 36.8272 3.17871 36.7702 3.17059C36.7141 3.16387 36.6606 3.20232 36.6526 3.25911C36.6473 3.29655 36.5337 4.15791 37.0017 4.76544C36.8931 5.02968 36.7822 5.30659 36.6701 5.59589C36.6656 5.60271 36.6603 5.6089 36.6575 5.61696C36.6555 5.62258 36.6561 5.62824 36.6552 5.63386C36.578 5.83339 36.5006 6.03941 36.4233 6.24898C35.942 5.47531 35.9887 4.48157 35.9892 4.47092C35.9923 4.41356 35.9483 4.36431 35.891 4.36123C35.8285 4.35898 35.7844 4.40213 35.7813 4.45954C35.7785 4.50816 35.7253 5.6425 36.335 6.48912C36.257 6.70459 36.1796 6.92583 36.1028 7.14994C36.0943 7.16204 36.0877 7.17567 36.0851 7.19117C36.0845 7.19453 36.0857 7.1977 36.0854 7.20106C35.9647 7.55511 35.8464 7.91827 35.7327 8.28932C35.0922 7.57719 35.0575 6.56424 35.0572 6.55344C35.0558 6.4969 35.0094 6.45192 34.9531 6.45192C34.9522 6.45192 34.9514 6.45192 34.9504 6.45192C34.893 6.45336 34.8475 6.50117 34.8489 6.55853C34.8501 6.60768 34.8884 7.74519 35.6639 8.5176C35.593 8.75487 35.5242 8.99467 35.458 9.23674C35.4525 9.24682 35.4477 9.25738 35.4459 9.26938C35.4454 9.27255 35.4465 9.27538 35.4464 9.27845C35.3262 9.71991 35.2157 10.1678 35.1165 10.6184C33.9464 9.86501 33.6777 8.53656 33.6752 8.52279C33.6644 8.466 33.6092 8.42875 33.5535 8.43975C33.497 8.45055 33.4597 8.50488 33.4705 8.56143C33.4819 8.62248 33.7656 10.0414 35.0688 10.835C35.0225 11.0549 34.9799 11.2752 34.9401 11.4955C34.9396 11.4968 34.9387 11.4975 34.9383 11.4988C34.936 11.5058 34.9366 11.5128 34.9359 11.5199C34.8224 12.1505 34.736 12.7809 34.6884 13.4004C34.6839 13.4578 34.7268 13.5078 34.7842 13.5121C34.7869 13.5125 34.7895 13.5125 34.7924 13.5125C34.8461 13.5125 34.8919 13.471 34.896 13.4162C34.9404 12.8386 35.0194 12.251 35.1222 11.6627C35.3299 11.7183 35.5347 11.7444 35.7331 11.7444C37.0015 11.7444 38.025 10.7605 38.0757 10.7111C38.1168 10.671 38.1176 10.6051 38.0773 10.5638C38.0374 10.5231 37.9715 10.5223 37.93 10.5622C37.9167 10.5753 36.5861 11.8469 35.1586 11.4541C35.286 10.7639 35.4465 10.074 35.6286 9.39883C35.7368 9.41146 35.8432 9.41938 35.946 9.41938C37.2035 9.41938 38.0403 8.54602 38.0787 8.50512C38.1182 8.46322 38.1162 8.39727 38.0743 8.35781C38.0324 8.31855 37.9666 8.32037 37.9269 8.36228C37.9177 8.37236 36.9949 9.32688 35.6856 9.19426C35.8639 8.55135 36.0597 7.92379 36.2635 7.32327C36.3528 7.33445 36.4409 7.3418 36.5264 7.3418C37.675 7.3418 38.4583 6.39658 38.4941 6.35242C38.5305 6.30788 38.5236 6.24231 38.479 6.20592C38.4346 6.16992 38.3689 6.17621 38.3325 6.22099C38.3239 6.23155 37.4865 7.23466 36.3329 7.1198C36.4945 6.65208 36.6595 6.20218 36.8233 5.77656C36.9393 5.80772 37.0528 5.82701 37.161 5.82701C38.1162 5.82701 38.747 4.7353 38.7543 4.72248C38.7826 4.67242 38.7649 4.60892 38.7148 4.58045C38.6652 4.55194 38.6015 4.56927 38.5728 4.61996C38.5659 4.63267 37.8751 5.82269 36.8991 5.58163C37.1087 5.04485 37.3139 4.54973 37.5044 4.10871C38.706 4.04803 39.1394 3.05074 39.1435 3.04037Z" fill="#C2D5FF"/>
<path d="M37.2219 13.6152V16.649C37.2219 17.7805 36.676 18.8558 35.7591 19.5266C35.6342 19.6183 35.4799 19.6662 35.3133 19.6662H31.9981C31.8251 19.6662 31.6585 19.6101 31.5146 19.5016C30.6062 18.8203 30.0852 17.7805 30.0852 16.649V13.6151C30.0852 13.4443 30.2248 13.3047 30.3957 13.3047H36.9114C37.0823 13.3047 37.2219 13.4443 37.2219 13.6152Z" fill="url(#paint6_linear_7_1775)"/>
<path d="M37.2219 15.0655V16.2303C37.2219 16.2886 37.1761 16.3345 37.1177 16.3345H30.1894C30.1331 16.3345 30.0852 16.2886 30.0852 16.2303V15.0655C30.0852 15.0093 30.1331 14.9613 30.1894 14.9613H37.1177C37.1761 14.9613 37.2219 15.0093 37.2219 15.0655Z" fill="#B3B3FF"/>
<defs>
<linearGradient id="paint0_linear_7_1775" x1="0.538447" y1="21.8384" x2="40.0801" y2="21.8384" gradientUnits="userSpaceOnUse">
<stop stop-color="#E7ECFF"/>
<stop offset="1" stop-color="#C2D5FF"/>
</linearGradient>
<linearGradient id="paint1_linear_7_1775" x1="2.96327" y1="9.94538" x2="9.92569" y2="9.94538" gradientUnits="userSpaceOnUse">
<stop stop-color="#E7ECFF"/>
<stop offset="1" stop-color="#C2D5FF"/>
</linearGradient>
<linearGradient id="paint2_linear_7_1775" x1="9.92569" y1="11.1438" x2="16.0299" y2="11.1438" gradientUnits="userSpaceOnUse">
<stop stop-color="#E7ECFF"/>
<stop offset="1" stop-color="#C2D5FF"/>
</linearGradient>
<linearGradient id="paint3_linear_7_1775" x1="16.0299" y1="9.94538" x2="22.9924" y2="9.94538" gradientUnits="userSpaceOnUse">
<stop stop-color="#E7ECFF"/>
<stop offset="1" stop-color="#C2D5FF"/>
</linearGradient>
<linearGradient id="paint4_linear_7_1775" x1="28.5628" y1="7.93265" x2="35.5982" y2="7.93265" gradientUnits="userSpaceOnUse">
<stop stop-color="#E7ECFF"/>
<stop offset="1" stop-color="#C2D5FF"/>
</linearGradient>
<linearGradient id="paint5_linear_7_1775" x1="31.4139" y1="6.73017" x2="39.9484" y2="6.73017" gradientUnits="userSpaceOnUse">
<stop stop-color="#E7ECFF"/>
<stop offset="1" stop-color="#C2D5FF"/>
</linearGradient>
<linearGradient id="paint6_linear_7_1775" x1="30.0852" y1="16.4855" x2="37.2219" y2="16.4855" gradientUnits="userSpaceOnUse">
<stop stop-color="#E7ECFF"/>
<stop offset="1" stop-color="#C2D5FF"/>
</linearGradient>
</defs>
</svg>
