<svg width="17" height="9" viewBox="0 0 17 9" fill="none" xmlns="http://www.w3.org/2000/svg">
<path d="M16.6732 6.12726C16.6732 6.13082 16.6732 6.13083 16.6732 6.13083V6.14142C16.7049 6.69894 16.3873 7.21765 15.8686 7.44358C14.8699 7.8776 12.9467 8.44568 10.4165 7.95171C6.63359 7.20718 3.10122 7.63758 1.70024 7.77525C1.20622 7.82469 0.938009 7.11894 0.860393 6.15544C0.856841 6.11315 0.853338 6.07076 0.853338 6.02843C0.758058 4.47568 1.15328 2.35129 1.92964 1.63844C1.97903 1.5926 2.02847 1.55382 2.08137 1.51849C2.14487 1.47611 2.21193 1.44438 2.28249 1.42322C3.32706 1.10565 5.31729 3.70289 6.55593 2.32664C6.69354 2.17846 6.6512 1.89257 6.5877 1.55383C6.55947 1.40201 6.5277 1.23616 6.50303 1.07032C6.48052 0.908751 6.52204 0.740653 6.59232 0.583405C6.77347 0.178189 7.30881 0.0825737 7.63886 0.379358C7.90147 0.61547 8.27403 0.937903 8.78264 1.35262C8.87442 1.42669 8.96265 1.5149 9.05438 1.60312C9.11788 1.65957 9.18138 1.71963 9.24844 1.77958C9.48134 2.00197 9.71778 2.19953 9.95067 2.37593C10.0495 2.45354 10.1483 2.5242 10.2436 2.59476C10.4977 2.76766 10.7446 2.9229 10.9952 3.06061C11.101 3.12061 11.2069 3.177 11.3163 3.22999C13.4795 4.29573 15.378 4.03802 16.0521 4.65909C16.4791 5.04727 16.6272 5.61539 16.6696 6.1024C16.6732 6.10964 16.6732 6.12021 16.6732 6.12726Z" fill="url(#paint0_linear_7_2632)"/>
<path d="M1.45892 6.51398C1.45892 6.51398 0.762194 4.81319 1.81071 3.2254C1.81071 3.2254 3.1827 4.74634 4.53232 4.62888C5.88193 4.51143 7.32509 2.83301 7.32509 2.83301C7.32509 2.83301 7.3442 3.4165 6.77132 4.27488C6.77132 4.27488 7.5793 4.24172 8.23762 3.4177C8.23762 3.4177 8.26037 4.14447 7.5396 4.81383C7.5396 4.81383 8.51141 4.71172 9.28114 4.12641C9.28114 4.12641 9.00452 4.86787 8.36891 5.2931C8.36891 5.2931 9.4538 6.33053 10.1229 6.33691L8.32345 7.22377L1.9417 7.39247L1.45892 6.51398Z" fill="#F9C55F"/>
<path d="M15.8703 7.44441C14.8714 7.87603 12.9463 8.44398 10.418 7.95064C6.63374 7.20587 3.10229 7.63719 1.69901 7.77682C1.20734 7.82439 0.936999 7.1171 0.860295 6.15638C0.857367 6.11419 0.854392 6.07196 0.854248 6.02766C3.1199 5.04361 6.59721 5.21515 9.33062 6.45422C12.3227 7.80921 15.7358 7.06382 16.6648 6.12715C16.6676 6.12514 16.67 6.12552 16.672 6.1283C16.674 6.13108 16.6716 6.13071 16.6716 6.13071C16.6736 6.1335 16.6728 6.1383 16.6725 6.14065C16.7066 6.69894 16.3884 7.21939 15.8703 7.44441Z" fill="#070159"/>
<path d="M9.05555 1.60222C8.84382 1.92814 8.44903 2.37628 7.79229 2.65708C7.74012 2.68055 7.67963 2.67426 7.63316 2.64805C7.59937 2.629 7.57154 2.59944 7.55392 2.56161C7.51403 2.46955 7.55733 2.36312 7.64944 2.32323C8.25846 2.06283 8.6068 1.63305 8.78147 1.35297C8.8709 1.43125 8.96219 1.51611 9.05555 1.60222Z" fill="white"/>
<path d="M10.2446 2.59324C10.0228 2.90236 9.58451 3.37329 8.85664 3.62231C8.80475 3.64031 8.75296 3.6334 8.70861 3.60834C8.67059 3.58689 8.63978 3.55282 8.62566 3.50866C8.5924 3.41473 8.64329 3.3098 8.73934 3.27769C9.37778 3.0589 9.76341 2.64188 9.95143 2.37769C10.0495 2.45545 10.147 2.52431 10.2446 2.59324Z" fill="white"/>
<path d="M11.3167 3.22892C11.1368 3.54778 10.7309 4.10928 9.96527 4.43996C9.91184 4.46554 9.85141 4.45925 9.80494 4.433C9.77115 4.41394 9.74331 4.38427 9.72689 4.34443C9.68701 4.25231 9.7303 4.14591 9.82241 4.10602C10.4869 3.82128 10.8404 3.33308 10.994 3.06073C11.1029 3.11943 11.2097 3.17689 11.3167 3.22892Z" fill="white"/>
<defs>
<linearGradient id="paint0_linear_7_2632" x1="0.839293" y1="4.17475" x2="16.6753" y2="4.17475" gradientUnits="userSpaceOnUse">
<stop offset="3.2e-07" stop-color="#FF8888"/>
<stop offset="1" stop-color="#F24E4E"/>
</linearGradient>
</defs>
</svg>
