<svg width="23" height="10" viewBox="0 0 23 10" fill="none" xmlns="http://www.w3.org/2000/svg">
<path d="M12.9276 3.19689C12.9276 4.41834 11.9374 5.40853 10.716 5.40853H0.478638V0.985229H10.716C11.9374 0.985229 12.9276 1.97543 12.9276 3.19689Z" fill="url(#paint0_linear_7_1766)"/>
<path d="M11.9796 3.19686C11.9796 4.02438 11.3087 4.69517 10.4813 4.69517H0.478638V1.69849H10.4812C11.3087 1.69853 11.9796 2.36939 11.9796 3.19686Z" fill="white"/>
<path d="M22.9303 3.19684C22.9303 4.41714 21.9389 5.40858 20.7186 5.40858H10.7159C11.9362 5.40858 12.9277 4.41714 12.9277 3.19684C12.9277 1.97668 11.9362 0.985229 10.7159 0.985229H20.7186C21.9388 0.985229 22.9303 1.97668 22.9303 3.19684Z" fill="url(#paint1_linear_7_1766)"/>
<path d="M10.4812 7.62026C10.4812 8.84172 11.4714 9.83192 12.6929 9.83192H22.9302V5.40857H12.6929C11.4714 5.40857 10.4812 6.3988 10.4812 7.62026Z" fill="url(#paint2_linear_7_1766)"/>
<path d="M11.4293 7.62031C11.4293 8.44783 12.1002 9.11863 12.9276 9.11863H22.9302V6.12195H12.9276C12.1002 6.12195 11.4293 6.79279 11.4293 7.62031Z" fill="white"/>
<path d="M0.478638 7.62017C0.478638 8.84047 1.47007 9.83192 2.69038 9.83192H12.693C11.4727 9.83192 10.4812 8.84047 10.4812 7.62017C10.4812 6.40001 11.4727 5.40857 12.693 5.40857H2.69038C1.47007 5.40857 0.478638 6.40001 0.478638 7.62017Z" fill="url(#paint3_linear_7_1766)"/>
<defs>
<linearGradient id="paint0_linear_7_1766" x1="12.9276" y1="3.19689" x2="0.478638" y2="3.19689" gradientUnits="userSpaceOnUse">
<stop offset="3.2e-07" stop-color="#A7C161"/>
<stop offset="1" stop-color="#8BA53A"/>
</linearGradient>
<linearGradient id="paint1_linear_7_1766" x1="22.9303" y1="3.19689" x2="10.716" y2="3.19689" gradientUnits="userSpaceOnUse">
<stop offset="3.2e-07" stop-color="#A7C161"/>
<stop offset="1" stop-color="#8BA53A"/>
</linearGradient>
<linearGradient id="paint2_linear_7_1766" x1="22.9302" y1="7.62026" x2="10.4812" y2="7.62026" gradientUnits="userSpaceOnUse">
<stop offset="3.2e-07" stop-color="#FF8888"/>
<stop offset="1" stop-color="#F24E4E"/>
</linearGradient>
<linearGradient id="paint3_linear_7_1766" x1="12.693" y1="7.62026" x2="0.478638" y2="7.62026" gradientUnits="userSpaceOnUse">
<stop offset="3.2e-07" stop-color="#FF8888"/>
<stop offset="1" stop-color="#F24E4E"/>
</linearGradient>
</defs>
</svg>
