<svg width="53" height="43" viewBox="0 0 53 43" fill="none" xmlns="http://www.w3.org/2000/svg">
<path d="M52.0307 7.21408H51.628V4.65611C51.628 2.49851 49.8723 0.74305 47.7147 0.74305H45.0627V0.340332H47.7147C50.0946 0.340332 52.0308 2.27632 52.0308 4.65611L52.0307 7.21408Z" fill="#B7BCFF"/>
<path d="M47.6678 42.3283H45.1099V41.9256H47.6678C49.8254 41.9256 51.5807 40.1701 51.5807 38.0125V35.3608H51.9834V38.0125C51.9834 40.3923 50.0476 42.3283 47.6678 42.3283Z" fill="#B7BCFF"/>
<path d="M0.459361 7.21408H0.0566406V4.65611C0.0566406 2.27632 1.99244 0.340332 4.37223 0.340332H7.02423V0.74305H4.37223C2.21463 0.74305 0.459361 2.49851 0.459361 4.65611V7.21408Z" fill="#B7BCFF"/>
<path d="M6.97737 42.3283H4.41941C2.03962 42.3283 0.103394 40.3923 0.103394 38.0125V35.3607H0.506108V38.0125C0.506108 40.1701 2.26176 41.9255 4.41936 41.9255H6.97733L6.97737 42.3283Z" fill="#B7BCFF"/>
<path d="M49.7294 4.65594V38.0126C49.7294 39.1253 48.8274 40.0273 47.7148 40.0273H4.37232C3.25963 40.0273 2.35767 39.1253 2.35767 38.0126V4.65594C2.35767 3.54325 3.25968 2.64124 4.37232 2.64124H47.7148C48.8274 2.64124 49.7294 3.54325 49.7294 4.65594Z" fill="url(#paint0_linear_7_2674)"/>
<path d="M22.663 12.5723V21.0269C22.663 21.4438 22.3251 21.7817 21.9082 21.7817H6.92296C6.50613 21.7817 6.16821 21.4438 6.16821 21.0269V12.5723C6.16821 12.1554 6.50613 11.8175 6.92296 11.8175H21.9082C22.3251 11.8175 22.663 12.1554 22.663 12.5723Z" fill="#ADC8F7"/>
<path d="M49.7299 4.65565V9.47077H16.6071C16.2572 9.47077 15.93 9.29773 15.733 9.00853L14.4415 7.11249C14.2445 6.82329 13.9173 6.65025 13.5674 6.65025H9.03092C8.681 6.65025 8.35373 6.82329 8.15679 7.11249L6.8653 9.00853C6.66831 9.29773 6.34105 9.47077 5.99118 9.47077H2.35815V4.65575C2.35815 3.54244 3.2607 2.63989 4.37401 2.63989H47.7142C48.8274 2.63989 49.7299 3.54239 49.7299 4.65565Z" fill="url(#paint1_linear_7_2674)"/>
<path d="M47.5349 6.11142C47.5349 6.9328 46.869 7.59866 46.0477 7.59866H22.388C21.5667 7.59866 20.9008 6.9328 20.9008 6.11142C20.9008 5.29005 21.5666 4.62415 22.388 4.62415H46.0477C46.869 4.62415 47.5349 5.29005 47.5349 6.11142Z" fill="url(#paint2_linear_7_2674)"/>
<path d="M46.0477 4.62415H44.593V7.59866H46.0477C46.869 7.59866 47.5349 6.9328 47.5349 6.11142C47.5349 5.29005 46.869 4.62415 46.0477 4.62415Z" fill="#3D79F3"/>
<path d="M45.8292 6.5705C45.6758 6.5705 45.5311 6.5105 45.4218 6.4014C45.3128 6.29263 45.2531 6.14791 45.2531 5.99373C45.2531 5.83956 45.3128 5.69503 45.4218 5.58631C45.6381 5.36959 46.0203 5.36959 46.2367 5.58631C46.3456 5.69508 46.4054 5.8398 46.4054 5.99373C46.4054 6.14791 46.3456 6.29263 46.2367 6.4014C46.1277 6.5105 45.983 6.5705 45.8292 6.5705ZM45.8292 5.61972C45.7285 5.61972 45.6345 5.65845 45.5641 5.72868C45.4933 5.79948 45.4544 5.89346 45.4544 5.99373C45.4544 6.094 45.4933 6.18823 45.5641 6.25903C45.7065 6.40101 45.9519 6.40101 46.0943 6.25903C46.1651 6.18823 46.204 6.09405 46.204 5.99373C46.204 5.89346 46.1651 5.79943 46.0943 5.72868C46.0239 5.65845 45.9299 5.61972 45.8292 5.61972Z" fill="white"/>
<path d="M46.5395 6.80469C46.5135 6.80469 46.488 6.79485 46.4683 6.77517L46.0943 6.40134C46.055 6.36203 46.055 6.29829 46.0943 6.25898C46.1336 6.21966 46.1974 6.21966 46.2367 6.25898L46.6107 6.6328C46.65 6.67211 46.65 6.73585 46.6107 6.77517C46.591 6.79485 46.5655 6.80469 46.5395 6.80469Z" fill="white"/>
<path d="M12.0284 18.5604L9.15544 17.2714C9.07365 17.233 9.01034 17.1815 8.96469 17.1166C8.91909 17.0517 8.89624 16.9786 8.89624 16.897V16.8394C8.89624 16.7578 8.91904 16.6846 8.96469 16.6197C9.01029 16.555 9.07365 16.5035 9.15544 16.465L12.0284 15.1762C12.067 15.1616 12.1051 15.1545 12.1437 15.1545C12.2255 15.1545 12.2939 15.182 12.349 15.2373C12.404 15.2926 12.432 15.361 12.432 15.4424C12.432 15.5002 12.4139 15.5541 12.3777 15.6045C12.3419 15.655 12.2951 15.6922 12.2373 15.7162L9.64509 16.8681L12.2373 18.0203C12.2951 18.0445 12.3419 18.0814 12.3777 18.132C12.4139 18.1823 12.432 18.2364 12.432 18.294C12.432 18.3756 12.404 18.4441 12.349 18.4991C12.2939 18.5544 12.2255 18.5821 12.1437 18.5821C12.1051 18.582 12.067 18.5748 12.0284 18.5604Z" fill="white"/>
<path d="M13.2487 19.5971C13.1937 19.5397 13.1661 19.4699 13.1661 19.3883C13.1661 19.3596 13.1732 19.3236 13.1874 19.2803L15.0956 13.6999C15.1148 13.6423 15.1483 13.5943 15.1967 13.5559C15.2442 13.5176 15.3044 13.4984 15.3764 13.4984C15.4629 13.4984 15.5337 13.5271 15.5888 13.5847C15.6443 13.6423 15.6718 13.712 15.6718 13.7936C15.6718 13.8224 15.6648 13.8584 15.6502 13.9015L13.7419 19.4819C13.7227 19.5397 13.6892 19.5875 13.6412 19.6261C13.5932 19.6644 13.5331 19.6837 13.4611 19.6837C13.375 19.6837 13.3038 19.655 13.2487 19.5971Z" fill="white"/>
<path d="M16.4817 18.4991C16.4266 18.444 16.399 18.3756 16.399 18.294C16.399 18.2364 16.4171 18.1823 16.453 18.1319C16.4891 18.0814 16.5359 18.0444 16.5934 18.0202L19.1855 16.8681L16.5934 15.7161C16.5359 15.6921 16.4891 15.655 16.453 15.6044C16.4171 15.5541 16.399 15.5002 16.399 15.4424C16.399 15.361 16.4265 15.2925 16.4817 15.2373C16.5371 15.182 16.6055 15.1545 16.687 15.1545C16.7302 15.1545 16.7687 15.1615 16.8022 15.1761L19.6752 16.4649C19.757 16.5035 19.8203 16.555 19.8659 16.6197C19.9115 16.6846 19.9344 16.7577 19.9344 16.8393V16.8969C19.9344 16.9785 19.9116 17.0517 19.8659 17.1166C19.8203 17.1815 19.757 17.233 19.6752 17.2713L16.8022 18.5604C16.7687 18.5747 16.7302 18.582 16.687 18.582C16.6055 18.582 16.5371 18.5543 16.4817 18.4991Z" fill="white"/>
<path d="M11.1115 24.117C11.1115 24.4182 10.8673 24.6625 10.566 24.6625H6.71373C6.41248 24.6625 6.16821 24.4183 6.16821 24.117C6.16821 23.8157 6.41244 23.5715 6.71373 23.5715H10.566C10.8673 23.5715 11.1115 23.8157 11.1115 24.117Z" fill="white"/>
<path d="M11.1115 26.6579C11.1115 26.9592 10.8673 27.2034 10.566 27.2034H6.71373C6.41248 27.2034 6.16821 26.9592 6.16821 26.6579C6.16821 26.3566 6.41244 26.1124 6.71373 26.1124H10.566C10.8673 26.1124 11.1115 26.3566 11.1115 26.6579Z" fill="white"/>
<path d="M33.3995 23.5715H14.4316C14.1303 23.5715 13.8861 23.8158 13.8861 24.1171C13.8861 24.4183 14.1303 24.6626 14.4316 24.6626H33.3995C33.7008 24.6626 33.9451 24.4184 33.9451 24.1171C33.9451 23.8158 33.7008 23.5715 33.3995 23.5715Z" fill="white"/>
<path d="M30.9508 26.6578C30.9508 26.9591 31.195 27.2034 31.4963 27.2034H37.416C37.7173 27.2034 37.9615 26.9592 37.9615 26.6579C37.9615 26.3566 37.7173 26.1123 37.416 26.1123H31.4963C31.195 26.1123 30.9508 26.3565 30.9508 26.6578Z" fill="white"/>
<path d="M27.3045 26.1123H14.4316C14.1303 26.1123 13.8861 26.3565 13.8861 26.6578C13.8861 26.9591 14.1303 27.2034 14.4316 27.2034H27.3045C27.6057 27.2034 27.85 26.9592 27.85 26.6579C27.8499 26.3566 27.6057 26.1123 27.3045 26.1123Z" fill="white"/>
<path d="M11.1115 28.8772C11.1115 29.1784 10.8673 29.4227 10.566 29.4227H6.71373C6.41248 29.4227 6.16821 29.1785 6.16821 28.8772C6.16821 28.5759 6.41244 28.3317 6.71373 28.3317H10.566C10.8673 28.3317 11.1115 28.5759 11.1115 28.8772Z" fill="white"/>
<path d="M11.1115 31.4181C11.1115 31.7193 10.8673 31.9636 10.566 31.9636H6.71373C6.41248 31.9636 6.16821 31.7194 6.16821 31.4181C6.16821 31.1168 6.41244 30.8726 6.71373 30.8726H10.566C10.8673 30.8726 11.1115 31.1168 11.1115 31.4181Z" fill="white"/>
<path d="M21.222 28.3317H14.4316C14.1303 28.3317 13.8861 28.5759 13.8861 28.8772C13.8861 29.1785 14.1303 29.4228 14.4316 29.4228H21.222C21.5232 29.4228 21.7675 29.1786 21.7675 28.8773C21.7674 28.576 21.5232 28.3317 21.222 28.3317Z" fill="white"/>
<path d="M43.3111 28.3317H24.579C24.2777 28.3317 24.0334 28.5759 24.0334 28.8772C24.0334 29.1785 24.2777 29.4228 24.579 29.4228H43.3111C43.6123 29.4228 43.8566 29.1786 43.8566 28.8773C43.8566 28.576 43.6124 28.3317 43.3111 28.3317Z" fill="white"/>
<path d="M27.3045 30.8725H14.4316C14.1303 30.8725 13.8861 31.1167 13.8861 31.418C13.8861 31.7193 14.1303 31.9636 14.4316 31.9636H27.3045C27.6057 31.9636 27.85 31.7194 27.85 31.4181C27.8499 31.1168 27.6057 30.8725 27.3045 30.8725Z" fill="white"/>
<path d="M13.0801 34.0204C13.0801 34.3216 12.8359 34.5659 12.5346 34.5659H8.68236C8.38106 34.5659 8.13684 34.3217 8.13684 34.0204C8.13684 33.7191 8.38106 33.4749 8.68236 33.4749H12.5346C12.8359 33.4749 13.0801 33.7191 13.0801 34.0204Z" fill="white"/>
<path d="M13.0801 36.5612C13.0801 36.8625 12.8359 37.1067 12.5346 37.1067H8.68236C8.38106 37.1067 8.13684 36.8625 8.13684 36.5612C8.13684 36.26 8.38106 36.0157 8.68236 36.0157H12.5346C12.8359 36.0157 13.0801 36.26 13.0801 36.5612Z" fill="white"/>
<path d="M23.1906 33.4749H16.4003C16.099 33.4749 15.8547 33.7191 15.8547 34.0204C15.8547 34.3216 16.099 34.5659 16.4003 34.5659H23.1906C23.4919 34.5659 23.7361 34.3217 23.7361 34.0204C23.7361 33.7191 23.4919 33.4749 23.1906 33.4749Z" fill="white"/>
<path d="M36.6675 33.4749H26.5476C26.2463 33.4749 26.0021 33.7191 26.0021 34.0204C26.0021 34.3216 26.2463 34.5659 26.5476 34.5659H36.6675C36.9687 34.5659 37.213 34.3217 37.213 34.0204C37.213 33.7191 36.9687 33.4749 36.6675 33.4749Z" fill="white"/>
<path d="M32.9194 36.5611C32.9194 36.8624 33.1637 37.1067 33.465 37.1067H43.7601C44.0614 37.1067 44.3057 36.8625 44.3057 36.5612C44.3057 36.2599 44.0614 36.0156 43.7601 36.0156H33.465C33.1637 36.0156 32.9194 36.2599 32.9194 36.5611Z" fill="white"/>
<path d="M29.2731 36.0156H16.4003C16.099 36.0156 15.8547 36.2598 15.8547 36.5611C15.8547 36.8624 16.099 37.1067 16.4003 37.1067H29.2731C29.5744 37.1067 29.8186 36.8625 29.8186 36.5612C29.8186 36.2599 29.5744 36.0156 29.2731 36.0156Z" fill="white"/>
<path d="M41.6803 13.5555C41.6803 13.8439 41.4466 14.0776 41.1582 14.0776H30.6705C30.3821 14.0776 30.1484 13.8439 30.1484 13.5555C30.1484 13.2671 30.3822 13.0334 30.6705 13.0334H41.1582C41.4466 13.0334 41.6803 13.2671 41.6803 13.5555Z" fill="white"/>
<path d="M29.7922 15.7552H26.5229C26.2346 15.7552 26.0009 15.989 26.0009 16.2773V16.2774C26.0009 16.5658 26.2346 16.7995 26.5229 16.7995H29.7922C30.0805 16.7995 30.3143 16.5658 30.3143 16.2774V16.2773C30.3143 15.989 30.0806 15.7552 29.7922 15.7552Z" fill="white"/>
<path d="M32.5063 16.2773V16.2774C32.5063 16.5658 32.7401 16.7995 33.0284 16.7995H45.3057C45.594 16.7995 45.8278 16.5658 45.8278 16.2774V16.2773C45.8278 15.989 45.594 15.7552 45.3057 15.7552H33.0284C32.7401 15.7552 32.5063 15.989 32.5063 16.2773Z" fill="white"/>
<path d="M38.2355 18.4772H26.5229C26.2346 18.4772 26.0009 18.711 26.0009 18.9993V18.9994C26.0009 19.2878 26.2346 19.5215 26.5229 19.5215H38.2355C38.5238 19.5215 38.7576 19.2878 38.7576 18.9994V18.9993C38.7576 18.711 38.5238 18.4772 38.2355 18.4772Z" fill="white"/>
<path d="M42.0862 18.9994V18.9995C42.0862 19.2878 42.32 19.5216 42.6083 19.5216H45.3056C45.594 19.5216 45.8277 19.2878 45.8277 18.9995V18.9994C45.8277 18.7111 45.594 18.4773 45.3056 18.4773H42.6083C42.32 18.4772 42.0862 18.711 42.0862 18.9994Z" fill="white"/>
<defs>
<linearGradient id="paint0_linear_7_2674" x1="25.7878" y1="14.2463" x2="26.7006" y2="39.549" gradientUnits="userSpaceOnUse">
<stop stop-color="#E7ECFF"/>
<stop offset="1" stop-color="#C2D5FF"/>
</linearGradient>
<linearGradient id="paint1_linear_7_2674" x1="25.9387" y1="10.9798" x2="26.2316" y2="0.0463325" gradientUnits="userSpaceOnUse">
<stop offset="1.1e-07" stop-color="#B3B3FF"/>
<stop offset="1" stop-color="#8F8FEA"/>
</linearGradient>
<linearGradient id="paint2_linear_7_2674" x1="20.9008" y1="6.11142" x2="47.5349" y2="6.11142" gradientUnits="userSpaceOnUse">
<stop stop-color="#E7ECFF"/>
<stop offset="1" stop-color="#C2D5FF"/>
</linearGradient>
</defs>
</svg>
