<svg width="38" height="22" viewBox="0 0 38 22" fill="none" xmlns="http://www.w3.org/2000/svg">
<path d="M11.2028 0.0820923L10.9582 0.929346H6.83618L7.08074 0.0820923H11.2028Z" fill="white"/>
<path d="M10.6333 2.05524L10.3886 2.90244H6.2666L6.51121 2.05524H10.6333Z" fill="white"/>
<path d="M20.0886 0.0821533H13.5166L13.272 0.929407H19.8441L20.0886 0.0821533Z" fill="white"/>
<path d="M31.3267 0.0821533H21.9782L21.7336 0.929407H31.0821L31.3267 0.0821533Z" fill="white"/>
<path d="M27.1769 2.05518L26.9323 2.90243H32.7783L33.0228 2.05518H27.1769Z" fill="white"/>
<path d="M24.5911 2.05518H12.947L12.7024 2.90243H24.3465L24.5911 2.05518Z" fill="white"/>
<path d="M10.1357 3.77869L9.89109 4.62589H5.76904L6.01365 3.77869H10.1357Z" fill="white"/>
<path d="M9.56607 5.75177L9.32151 6.59901H5.19946L5.44402 5.75177H9.56607Z" fill="white"/>
<path d="M19.0215 3.77869H12.4494L12.2048 4.62594H18.7769L19.0215 3.77869Z" fill="white"/>
<path d="M37.4412 3.77869H20.9111L20.6665 4.62594H37.1966L37.4412 3.77869Z" fill="white"/>
<path d="M26.1097 5.75171L25.8651 6.59901H31.7111L31.9557 5.75171H26.1097Z" fill="white"/>
<path d="M23.524 5.75171H11.8799L11.6353 6.59901H23.2794L23.524 5.75171Z" fill="white"/>
<path d="M10.6243 7.77258L10.3797 8.61984H6.25769L6.50225 7.77258H10.6243Z" fill="white"/>
<path d="M10.0548 9.74573L9.81016 10.5929H5.68811L5.93272 9.74573H10.0548Z" fill="white"/>
<path d="M19.5101 7.77258H12.9381L12.6935 8.61988H19.2656L19.5101 7.77258Z" fill="white"/>
<path d="M30.7482 7.77258H21.3997L21.1552 8.61988H30.5036L30.7482 7.77258Z" fill="white"/>
<path d="M26.5983 9.74567L26.3538 10.5929H35.8485L36.093 9.74567H26.5983Z" fill="white"/>
<path d="M24.0126 9.74567H12.3685L12.1239 10.5929H23.768L24.0126 9.74567Z" fill="white"/>
<path d="M9.5572 11.4691L9.3126 12.3163H5.19055L5.43516 11.4691H9.5572Z" fill="white"/>
<path d="M8.98758 13.4422L8.74302 14.2894H4.62097L4.86553 13.4422H8.98758Z" fill="white"/>
<path d="M18.443 11.4691H11.8709L11.6263 12.3164H18.1985L18.443 11.4691Z" fill="white"/>
<path d="M29.6811 11.4691H20.3326L20.088 12.3164H29.4365L29.6811 11.4691Z" fill="white"/>
<path d="M25.5312 13.4421L25.2866 14.2894L36.4314 14.2894L36.676 13.4422L25.5312 13.4421Z" fill="white"/>
<path d="M22.9455 13.4421H11.3014L11.0568 14.2894H22.7009L22.9455 13.4421Z" fill="white"/>
<path d="M6.93179 15.487L6.68723 16.3343H2.56519L2.80974 15.487H6.93179Z" fill="white"/>
<path d="M6.36226 17.4601L6.11765 18.3074H1.99561L2.24021 17.4601H6.36226Z" fill="white"/>
<path d="M15.8176 15.487H9.24558L9.00098 16.3343H15.573L15.8176 15.487Z" fill="white"/>
<path d="M27.0557 15.487H17.7072L17.4626 16.3343H26.8111L27.0557 15.487Z" fill="white"/>
<path d="M22.9058 17.4601L22.6613 18.3073H28.5072L28.7518 17.4601H22.9058Z" fill="white"/>
<path d="M20.3201 17.4601H8.67596L8.4314 18.3073H20.0755L20.3201 17.4601Z" fill="white"/>
<path d="M5.86465 19.1835L5.62009 20.0308H1.49805L1.74261 19.1835H5.86465Z" fill="white"/>
<path d="M5.29507 21.1567L5.05051 22.0039H0.928467L1.17303 21.1567H5.29507Z" fill="white"/>
<path d="M14.7504 19.1836H8.17833L7.93372 20.0308H14.5058L14.7504 19.1836Z" fill="white"/>
<path d="M25.9886 19.1836H16.6401L16.3955 20.0308H25.744L25.9886 19.1836Z" fill="white"/>
<path d="M21.8387 21.1566L21.5941 22.0039H35.8737L36.1182 21.1566H21.8387Z" fill="white"/>
<path d="M10.5816 21.1566H7.60882L7.36426 22.0038H10.337L10.5816 21.1566Z" fill="white"/>
<path d="M12.1749 21.1566L11.9303 22.0038H19.0083L19.2529 21.1566H12.1749Z" fill="white"/>
</svg>
