<svg width="81" height="37" viewBox="0 0 81 37" fill="none" xmlns="http://www.w3.org/2000/svg">
<path d="M80.864 5.17315L74.4112 33.0949C74.0165 34.8026 72.4957 36.0121 70.743 36.0121H26.8145C24.3928 36.0121 22.601 33.7589 23.1463 31.3994L29.5991 3.4777C29.9938 1.77 31.5146 0.560547 33.2673 0.560547H77.1958C79.6175 0.560499 81.4093 2.81371 80.864 5.17315Z" fill="url(#paint0_linear_7_1759)"/>
<path d="M33.2657 0.55896C31.5133 0.55896 29.9938 1.77096 29.5987 3.47505L23.1474 31.3972C22.5984 33.7598 24.3945 36.0127 26.8143 36.0127H0.785034V34.0321C0.785034 32.2885 2.19484 30.8789 3.9382 30.8789H20.7978L27.1305 3.47505C27.5258 1.77091 29.0453 0.55896 30.7976 0.55896H33.2657Z" fill="url(#paint1_linear_7_1759)"/>
<path d="M56.5089 18.5506C56.1056 20.6162 54.1229 22.2927 52.0804 22.2927C50.038 22.2927 48.7075 20.6162 49.1107 18.5506C49.514 16.4852 51.4987 14.8114 53.5411 14.8114C55.5836 14.8114 56.9121 16.4852 56.5089 18.5506Z" fill="#ADC8F7"/>
<defs>
<linearGradient id="paint0_linear_7_1759" x1="50.3045" y1="28.344" x2="54.4023" y2="4.10867" gradientUnits="userSpaceOnUse">
<stop stop-color="#E7ECFF"/>
<stop offset="1" stop-color="#C2D5FF"/>
</linearGradient>
<linearGradient id="paint1_linear_7_1759" x1="0.78501" y1="18.2858" x2="33.2657" y2="18.2858" gradientUnits="userSpaceOnUse">
<stop offset="3.2e-07" stop-color="#78A7FF"/>
<stop offset="1" stop-color="#3D79F3"/>
</linearGradient>
</defs>
</svg>
