<svg width="34" height="29" viewBox="0 0 34 29" fill="none" xmlns="http://www.w3.org/2000/svg">
<path d="M33.31 4.02795H25.9613C25.9184 4.02795 25.8773 4.04629 25.8486 4.0784L22.8039 7.47459C22.7164 7.57213 22.7856 7.72717 22.9167 7.72717C22.9597 7.72717 23.0007 7.70888 23.0294 7.67682L26.0291 4.33112H33.3188C33.4078 4.33112 33.4787 4.25451 33.4695 4.16384C33.4616 4.08493 33.3893 4.02795 33.31 4.02795Z" fill="#ADC8F7"/>
<path d="M33.4696 1.9685V0.226192C33.4696 0.141424 33.4029 0.074707 33.3182 0.074707H29.4487C29.3669 0.074707 29.2972 0.141424 29.2972 0.226192V1.9685C29.2972 2.05341 29.3669 2.11999 29.4487 2.11999H33.3182C33.4029 2.12003 33.4696 2.05346 33.4696 1.9685Z" fill="#ADC8F7"/>
<path d="M0.780109 24.1398H8.12871C8.17163 24.1398 8.21272 24.1214 8.24143 24.0893L11.2862 20.6931C11.3736 20.5956 11.3044 20.4406 11.1734 20.4406C11.1304 20.4406 11.0893 20.4588 11.0606 20.4909L8.06099 23.8366H0.771226C0.682282 23.8366 0.611342 23.9132 0.620558 24.0039C0.628574 24.0828 0.700861 24.1398 0.780109 24.1398Z" fill="#ADC8F7"/>
<path d="M0.620483 26.1992V27.9415C0.620483 28.0263 0.687204 28.093 0.771972 28.093H4.6414C4.72324 28.093 4.79289 28.0263 4.79289 27.9415V26.1992C4.79289 26.1143 4.72319 26.0477 4.6414 26.0477H0.771972C0.687204 26.0477 0.620483 26.1143 0.620483 26.1992Z" fill="#ADC8F7"/>
</svg>
