<svg width="134" height="7" viewBox="0 0 134 7" fill="none" xmlns="http://www.w3.org/2000/svg">
<path d="M132.602 2.86994L130.916 5.42541C130.391 6.22356 129.499 6.70307 128.548 6.70307H4.83001C3.87827 6.70307 2.98652 6.22356 2.46193 5.42541L0.775789 2.86994C0.307405 2.15431 0.210014 1.35247 0.386126 0.632996C0.461054 0.932756 0.588445 1.22882 0.775789 1.51355L2.46193 4.06903C2.98652 4.86707 3.87832 5.34669 4.83001 5.34669H128.548C129.499 5.34669 130.391 4.86707 130.916 4.06903L132.602 1.51355C132.789 1.22877 132.917 0.932756 132.991 0.632996C133.168 1.35252 133.07 2.15431 132.602 2.86994Z" fill="#ADC8F7"/>
</svg>
