<svg width="6" height="3" viewBox="0 0 6 3" fill="none" xmlns="http://www.w3.org/2000/svg">
<path d="M5.38515 1.16728C5.35693 1.48844 5.20165 1.80248 4.93702 1.98953C4.74997 2.12005 4.51707 2.18009 4.28768 2.1906C4.05478 2.20131 3.82539 2.16241 3.6031 2.10942C3.32081 2.04591 3.04203 1.96124 2.77385 1.85535C2.2904 1.66489 1.83166 1.41074 1.41171 1.10378C1.20349 0.948552 1.00587 0.782716 0.818813 0.60262C0.808253 0.592108 0.794141 0.581494 0.780029 0.570886C0.843533 0.528502 0.910591 0.496829 0.981199 0.475613C2.02573 0.158045 4.01599 2.75522 5.25463 1.37901C5.39225 1.23084 5.34992 0.94499 5.28642 0.606206C5.3781 0.775646 5.40282 0.973165 5.38515 1.16728Z" fill="#070159"/>
</svg>
