<svg width="10" height="6" viewBox="0 0 10 6" fill="none" xmlns="http://www.w3.org/2000/svg">
<path d="M1.15762 4.56637C1.15762 4.56637 0.460957 2.8656 1.50942 1.2778C1.50942 1.2778 2.8814 2.79872 4.23102 2.68127C5.58064 2.56381 7.0238 0.885437 7.0238 0.885437C7.0238 0.885437 7.04291 1.46893 6.47007 2.32731C6.47007 2.32731 7.27806 2.29415 7.93638 1.47013C7.93638 1.47013 7.95913 2.19685 7.23836 2.86626C7.23836 2.86626 8.21017 2.76417 8.9799 2.17881C8.9799 2.17881 8.70328 2.92027 8.06766 3.34555C8.06766 3.34555 9.15256 4.38296 9.82168 4.38934L8.0222 5.2762L1.64046 5.44492L1.15762 4.56637Z" fill="#F9C55F"/>
</svg>
