<svg width="5" height="3" viewBox="0 0 5 3" fill="none" xmlns="http://www.w3.org/2000/svg">
<path d="M4.68652 1.11493C4.6583 1.4361 4.50302 1.75016 4.23835 1.93717C4.05129 2.06768 3.81839 2.12772 3.58905 2.13824C3.35615 2.14889 3.12676 2.11006 2.90447 2.05707C2.62219 1.99357 2.3434 1.9089 2.07517 1.80301C1.59172 1.6125 1.13299 1.35833 0.713033 1.05137C0.504809 0.896137 0.307191 0.730301 0.120135 0.550205C0.109575 0.539693 0.0954588 0.529149 0.0812988 0.518541C0.144803 0.476157 0.211868 0.444412 0.282428 0.423244C1.327 0.105676 3.31723 2.70292 4.55587 1.32667C4.69348 1.17849 4.65114 0.892597 4.58764 0.553861C4.67946 0.723253 4.70419 0.920819 4.68652 1.11493Z" fill="#070159"/>
</svg>
