<svg width="17" height="9" viewBox="0 0 17 9" fill="none" xmlns="http://www.w3.org/2000/svg">
<path d="M16.3719 6.17971C16.3719 6.18326 16.3719 6.18325 16.3719 6.18325V6.19386C16.4036 6.75138 16.0861 7.27012 15.5673 7.496C14.5686 7.93002 12.6454 8.49815 10.1153 8.00413C6.33233 7.2596 2.79996 7.69003 1.39898 7.82769C0.904967 7.87713 0.636739 7.17138 0.559123 6.20793C0.555619 6.16564 0.552069 6.12321 0.552069 6.08092C0.456789 4.52817 0.852019 2.40378 1.62837 1.69093C1.67776 1.64509 1.7272 1.60631 1.7801 1.57098C1.8436 1.5286 1.91066 1.49692 1.98127 1.47571C3.0258 1.15814 5.01607 3.75531 6.25471 2.37911C6.39232 2.23093 6.34999 1.94509 6.28649 1.6063C6.25826 1.45448 6.22649 1.28865 6.20181 1.12281C6.1793 0.961241 6.22082 0.793191 6.29109 0.635895C6.47224 0.230679 7.00759 0.135064 7.33764 0.431848C7.60024 0.668008 7.97277 0.990418 8.48143 1.40509C8.57315 1.47915 8.66138 1.56739 8.75316 1.65566C8.81666 1.71206 8.88022 1.7721 8.94722 1.8321C9.18017 2.05443 9.41657 2.25199 9.64946 2.42844C9.7483 2.50606 9.84708 2.57672 9.94236 2.64728C10.1965 2.82022 10.4434 2.97546 10.694 3.11312C10.7998 3.17307 10.9057 3.22951 11.0151 3.28246C13.1783 4.3482 15.0768 4.09051 15.7508 4.71158C16.1778 5.09981 16.326 5.66788 16.3684 6.15493C16.3719 6.16204 16.3719 6.17265 16.3719 6.17971Z" fill="url(#paint0_linear_7_2617)"/>
<defs>
<linearGradient id="paint0_linear_7_2617" x1="0.538048" y1="4.22715" x2="16.3741" y2="4.22715" gradientUnits="userSpaceOnUse">
<stop offset="3.2e-07" stop-color="#FF8888"/>
<stop offset="1" stop-color="#F24E4E"/>
</linearGradient>
</defs>
</svg>
